<svg xmlns="http://www.w3.org/2000/svg" viewBox="0 0 1547.68 418.98"><defs><style>.cls-1{isolation:isolate;}.cls-2{fill:#fff;}.cls-3{mix-blend-mode:multiply;}.cls-4{fill:#fefefe;}.cls-5{fill:#fdfdfd;}.cls-6{fill:#fcfcfc;}.cls-7{fill:#fbfbfb;}.cls-8{fill:#fafafa;}.cls-9{fill:#f9f9f9;}.cls-10{fill:#f8f8f8;}.cls-11{fill:#f7f7f7;}.cls-12{fill:#f6f6f6;}.cls-13{fill:#f5f5f5;}.cls-14{fill:#f4f4f4;}.cls-15{fill:#f3f3f3;}.cls-16{fill:#f2f2f2;}.cls-17{fill:#f1f1f1;}.cls-18{fill:#f0f0f0;}.cls-19{fill:#efefef;}.cls-20{fill:#eee;}.cls-21{fill:#ededed;}.cls-22{fill:#ececec;}.cls-23{fill:#ebebeb;}.cls-24{fill:#eaeaea;}.cls-25{fill:#e9e9e9;}.cls-26{fill:#e8e8e8;}.cls-27{fill:#e7e7e7;}.cls-28{fill:#e6e6e6;}.cls-29{fill:#e5e5e5;}.cls-30{fill:#e4e4e4;}.cls-31{fill:#e3e3e3;}.cls-32{fill:#e2e2e2;}.cls-33{fill:#e1e1e1;}.cls-34{fill:#e0e0e0;}.cls-35{fill:#dfdfdf;}.cls-36{fill:#dedede;}.cls-37{fill:#ddd;}.cls-38{fill:#dcdcdc;}.cls-39{fill:#dbdbdb;}.cls-40{fill:#dadada;}.cls-41{fill:#d9d9d9;}.cls-42{fill:#d8d8d8;}.cls-43{fill:#bf0000;}.cls-44{font-size:145.27px;}.cls-44,.cls-48,.cls-51{font-family:Rubik-MediumItalic, Rubik;font-weight:500;font-style:italic;}.cls-45{letter-spacing:-0.03em;}.cls-46{letter-spacing:-0.02em;}.cls-47{letter-spacing:-0.03em;}.cls-48{font-size:39.62px;}.cls-49{letter-spacing:-0.01em;}.cls-50{letter-spacing:0em;}.cls-51{font-size:138.67px;}.cls-52{letter-spacing:-0.01em;}.cls-53{letter-spacing:-0.03em;}</style></defs><g class="cls-1"><g id="Capa_2" data-name="Capa 2"><path class="cls-2" d="M1465,188.51c0,91.17-126,270.73-224.51,270.73S1049,266.47,1049,175.3s99.63-13.2,198.1-13.2S1465,97.34,1465,188.51Z" transform="translate(-26.38 -89.46)"/><g class="cls-3"><path class="cls-2" d="M139.06,320.71H1146.84l8.49-38.12a4.62,4.62,0,0,1,4.72-3.56,4.57,4.57,0,0,1,4.27,4.09l13.6,134.12,13.48-218.32a4.57,4.57,0,0,1,4.5-4.28h.06a4.56,4.56,0,0,1,4.54,4.18l14.57,171,9.61-81.31a4.63,4.63,0,0,1,4.58-4,4.57,4.57,0,0,1,4.49,4.14l4.48,48.22,5.1-13.22a4.56,4.56,0,0,1,4.26-2.92h288.93a4.53,4.53,0,0,1,2.13.55C1559,287.51,1570.8,251.43,1562,218c-15.44-58.57-69.19-81.05-115.59-77.35-41.53,3.31-85.62,28.67-90.5,77.89a4.56,4.56,0,0,1-9.08,0c-3.83-38.66-34.53-69.38-78.21-78.26-34.78-7.07-84.5,1.32-110.15,48.27-17.71,32.42-15.71,52.19-15.69,52.36a4.57,4.57,0,0,1-9.06,1.13c-.11-.9-2.54-22.56,16.75-57.87,23.06-42.22,70.14-63,120-52.83,39.62,8.05,69.48,32.8,80.88,65.45,14-40.81,55.24-62.12,94.37-65.24,50.2-4,108.34,20.46,125.13,84.12,33.16,125.77-197.15,283-217.55,292.39a4.48,4.48,0,0,1-1.9.41,4.62,4.62,0,0,1-2-.45c-9.41-4.52-70.48-47-112.79-93.65a4.56,4.56,0,1,1,6.75-6.13c39,43,95,82.84,108.1,90.52,15.25-8.23,73.46-48.36,124.64-99.82,19.86-20,40.7-43.72,57.21-69.07H1250.72l-11,28.43a4.56,4.56,0,0,1-8.79-1.23l-2.28-24.49-9.79,82.93a4.56,4.56,0,0,1-9.08-.15l-13.11-153.86-13.1,212.16a4.56,4.56,0,0,1-4.46,4.28H1179a4.56,4.56,0,0,1-4.54-4.1l-16.4-161.67-3.15,14.13a4.56,4.56,0,0,1-4.45,3.57H139.06a4.57,4.57,0,0,1,0-9.13Z" transform="translate(-26.38 -89.46)"/><path class="cls-4" d="M136.94,319.94H1144.72l8.49-38.12a4.6,4.6,0,0,1,4.72-3.56,4.54,4.54,0,0,1,4.27,4.09l13.6,134.12,13.48-218.32a4.54,4.54,0,0,1,4.5-4.28h.06a4.56,4.56,0,0,1,4.54,4.18l14.57,171,9.61-81.31a4.63,4.63,0,0,1,4.58-4,4.57,4.57,0,0,1,4.49,4.14l4.48,48.22,5.1-13.22a4.56,4.56,0,0,1,4.26-2.92H1534.4a4.53,4.53,0,0,1,2.13.55c20.33-33.75,32.15-69.83,23.33-103.3-15.44-58.56-69.19-81-115.59-77.35-41.53,3.32-85.62,28.68-90.5,77.89a4.56,4.56,0,0,1-9.08,0c-3.83-38.65-34.53-69.37-78.21-78.25-34.78-7.07-84.5,1.32-110.15,48.27-17.71,32.42-15.71,52.19-15.69,52.36a4.57,4.57,0,0,1-9.06,1.13c-.11-.9-2.54-22.56,16.75-57.87,23.06-42.22,70.14-63,120-52.83,39.62,8.05,69.48,32.8,80.88,65.45,14-40.81,55.24-62.12,94.37-65.24,50.2-4,108.34,20.46,125.13,84.12,33.16,125.77-197.15,283-217.55,292.39a4.59,4.59,0,0,1-3.88,0c-9.41-4.52-70.48-47-112.79-93.65a4.56,4.56,0,0,1,6.75-6.13c39,43,95,82.84,108.1,90.52,15.25-8.23,73.46-48.36,124.64-99.82,19.86-20,40.7-43.72,57.21-69.07H1248.6l-11,28.43a4.56,4.56,0,0,1-8.79-1.23l-2.28-24.49-9.79,82.93a4.56,4.56,0,0,1-9.08-.15L1194.56,260.7l-13.1,212.16a4.59,4.59,0,0,1-4.46,4.28h-.09a4.56,4.56,0,0,1-4.54-4.1L1156,311.37l-3.15,14.13a4.56,4.56,0,0,1-4.45,3.57H136.94a4.57,4.57,0,0,1,0-9.13Z" transform="translate(-26.38 -89.46)"/><path class="cls-5" d="M134.82,319.17H1142.6l8.49-38.12a4.6,4.6,0,0,1,4.72-3.56,4.54,4.54,0,0,1,4.27,4.09l13.6,134.12,13.48-218.32a4.53,4.53,0,0,1,4.5-4.28h.06a4.56,4.56,0,0,1,4.54,4.17l14.57,171,9.61-81.31a4.63,4.63,0,0,1,4.58-4,4.57,4.57,0,0,1,4.49,4.14l4.48,48.22,5.1-13.22a4.56,4.56,0,0,1,4.26-2.92h288.93a4.53,4.53,0,0,1,2.13.55c20.33-33.75,32.15-69.83,23.33-103.3-15.44-58.56-69.19-81-115.59-77.35-41.53,3.31-85.62,28.68-90.5,77.89a4.56,4.56,0,0,1-9.08,0c-3.83-38.65-34.53-69.37-78.21-78.25-34.78-7.07-84.5,1.32-110.15,48.26-17.71,32.43-15.71,52.2-15.69,52.37a4.57,4.57,0,0,1-9.06,1.13c-.11-.9-2.54-22.56,16.75-57.87,23.06-42.22,70.14-63,120-52.84,39.62,8.06,69.48,32.81,80.88,65.46,14-40.81,55.24-62.12,94.37-65.24,50.2-4,108.34,20.46,125.13,84.12,33.16,125.77-197.15,283-217.55,292.39a4.59,4.59,0,0,1-3.88,0c-9.41-4.52-70.48-47-112.79-93.65a4.56,4.56,0,1,1,6.75-6.13c39,43,95,82.84,108.1,90.52,15.25-8.23,73.46-48.36,124.64-99.82,19.86-20,40.7-43.73,57.21-69.08H1246.48l-11,28.44a4.56,4.56,0,0,1-8.79-1.23L1224.42,331l-9.79,82.93a4.56,4.56,0,0,1-9.08-.15l-13.11-153.86-13.1,212.16a4.59,4.59,0,0,1-4.46,4.28h-.09a4.56,4.56,0,0,1-4.54-4.1l-16.4-161.67-3.15,14.12a4.55,4.55,0,0,1-4.45,3.57H134.82a4.56,4.56,0,1,1,0-9.12Z" transform="translate(-26.38 -89.46)"/><path class="cls-5" d="M132.7,318.4H1140.48l8.49-38.12a4.6,4.6,0,0,1,4.72-3.56,4.54,4.54,0,0,1,4.27,4.09l13.6,134.12L1185,196.61a4.53,4.53,0,0,1,4.5-4.28h.06a4.56,4.56,0,0,1,4.54,4.17l14.57,171,9.61-81.31a4.63,4.63,0,0,1,4.58-4,4.57,4.57,0,0,1,4.49,4.14l4.48,48.22,5.1-13.22a4.56,4.56,0,0,1,4.26-2.92h288.93a4.53,4.53,0,0,1,2.13.55c20.33-33.75,32.15-69.83,23.33-103.3-15.44-58.56-69.19-81-115.59-77.35-41.53,3.31-85.62,28.68-90.5,77.89a4.56,4.56,0,0,1-9.08,0c-3.83-38.66-34.53-69.37-78.21-78.25-34.78-7.07-84.5,1.32-110.15,48.26-17.71,32.43-15.71,52.2-15.69,52.37a4.57,4.57,0,0,1-9.06,1.13c-.11-.9-2.54-22.56,16.75-57.87,23.06-42.22,70.14-63,120-52.84,39.62,8.06,69.48,32.81,80.88,65.46,14-40.81,55.24-62.12,94.37-65.24,50.2-4,108.34,20.46,125.13,84.12,33.16,125.77-197.15,283-217.55,292.39a4.59,4.59,0,0,1-3.88,0c-9.41-4.53-70.48-47-112.79-93.65a4.56,4.56,0,0,1,6.75-6.13c39,43,95,82.84,108.1,90.52,15.25-8.23,73.46-48.36,124.64-99.82,19.86-20,40.7-43.73,57.21-69.08H1244.36l-11,28.43a4.56,4.56,0,0,1-8.79-1.22l-2.28-24.49-9.79,82.93a4.56,4.56,0,0,1-9.08-.15l-13.11-153.86-13.1,212.16a4.59,4.59,0,0,1-4.46,4.28h-.09a4.56,4.56,0,0,1-4.54-4.1l-16.4-161.67L1148.58,324a4.55,4.55,0,0,1-4.45,3.57H132.7a4.56,4.56,0,0,1,0-9.12Z" transform="translate(-26.38 -89.46)"/><path class="cls-6" d="M130.58,317.63H1138.36l8.49-38.12a4.6,4.6,0,0,1,4.72-3.56,4.54,4.54,0,0,1,4.27,4.09l13.6,134.11,13.48-218.31a4.52,4.52,0,0,1,4.5-4.28h.06a4.56,4.56,0,0,1,4.54,4.17l14.57,171,9.61-81.31a4.63,4.63,0,0,1,4.58-4,4.56,4.56,0,0,1,4.49,4.14l4.48,48.22,5.1-13.22a4.56,4.56,0,0,1,4.26-2.92H1528a4.53,4.53,0,0,1,2.13.55c20.33-33.75,32.15-69.83,23.33-103.3-15.44-58.56-69.19-81-115.59-77.35-41.53,3.31-85.62,28.68-90.5,77.89a4.56,4.56,0,0,1-9.08,0c-3.83-38.66-34.53-69.38-78.21-78.26-34.78-7.06-84.5,1.33-110.15,48.27-17.71,32.43-15.71,52.2-15.69,52.37a4.57,4.57,0,0,1-9.06,1.13c-.11-.91-2.54-22.56,16.75-57.87,23.06-42.22,70.14-63,120-52.84,39.62,8.06,69.48,32.81,80.88,65.46,14-40.81,55.24-62.12,94.37-65.24,50.2-4,108.34,20.46,125.13,84.12,33.16,125.77-197.15,283-217.55,292.38a4.49,4.49,0,0,1-1.9.42,4.62,4.62,0,0,1-2-.45c-9.41-4.53-70.48-47-112.79-93.65a4.56,4.56,0,1,1,6.75-6.13c39,43,95,82.84,108.1,90.52,15.25-8.23,73.46-48.36,124.64-99.82,19.86-20,40.7-43.73,57.21-69.08H1242.24l-11,28.43a4.56,4.56,0,0,1-8.79-1.22l-2.28-24.49-9.79,82.93a4.56,4.56,0,0,1-9.08-.15L1188.2,258.39l-13.1,212.16a4.59,4.59,0,0,1-4.46,4.28h-.09a4.56,4.56,0,0,1-4.54-4.1l-16.4-161.67-3.15,14.12a4.55,4.55,0,0,1-4.45,3.57H130.58a4.56,4.56,0,0,1,0-9.12Z" transform="translate(-26.38 -89.46)"/><path class="cls-7" d="M128.46,316.86H1136.24l8.49-38.12a4.61,4.61,0,0,1,4.72-3.57,4.55,4.55,0,0,1,4.27,4.1l13.6,134.11,13.48-218.31a4.52,4.52,0,0,1,4.5-4.28h.06a4.56,4.56,0,0,1,4.54,4.17l14.57,171,9.61-81.31a4.63,4.63,0,0,1,4.58-4,4.56,4.56,0,0,1,4.49,4.14l4.48,48.22,5.1-13.22a4.56,4.56,0,0,1,4.26-2.92h288.93a4.53,4.53,0,0,1,2.13.55c20.33-33.75,32.15-69.83,23.33-103.3-15.44-58.56-69.19-81-115.59-77.35-41.53,3.31-85.62,28.68-90.5,77.89a4.56,4.56,0,0,1-9.08,0c-3.83-38.66-34.53-69.38-78.21-78.26-34.78-7.06-84.5,1.33-110.15,48.27-17.71,32.43-15.71,52.2-15.69,52.37a4.57,4.57,0,0,1-9.06,1.13c-.11-.91-2.54-22.56,16.75-57.87,23.06-42.23,70.14-63,120-52.84,39.62,8.06,69.48,32.81,80.88,65.46,14-40.81,55.24-62.12,94.37-65.24,50.2-4,108.34,20.46,125.13,84.12,33.16,125.77-197.15,283-217.55,292.38a4.49,4.49,0,0,1-1.9.42,4.62,4.62,0,0,1-2-.45c-9.41-4.53-70.48-47-112.79-93.65a4.56,4.56,0,0,1,6.75-6.13c39,43,95,82.84,108.1,90.52,15.25-8.23,73.46-48.36,124.64-99.83,19.86-20,40.7-43.72,57.21-69.07H1240.12l-11,28.43a4.56,4.56,0,0,1-8.79-1.22l-2.28-24.49-9.79,82.93a4.56,4.56,0,0,1-9.08-.15l-13.11-153.86L1173,469.78a4.59,4.59,0,0,1-4.46,4.28h-.09a4.56,4.56,0,0,1-4.54-4.1l-16.4-161.67-3.15,14.12a4.55,4.55,0,0,1-4.45,3.57H128.46a4.56,4.56,0,0,1,0-9.12Z" transform="translate(-26.38 -89.46)"/><path class="cls-8" d="M126.34,316.09H1134.12l8.49-38.12a4.6,4.6,0,0,1,4.72-3.57,4.55,4.55,0,0,1,4.27,4.1l13.6,134.11,13.48-218.31a4.52,4.52,0,0,1,4.5-4.28h.06a4.56,4.56,0,0,1,4.54,4.17l14.57,171,9.61-81.32a4.62,4.62,0,0,1,4.58-4A4.56,4.56,0,0,1,1221,284l4.48,48.22,5.1-13.22a4.56,4.56,0,0,1,4.26-2.92H1523.8a4.53,4.53,0,0,1,2.13.55c20.33-33.75,32.15-69.83,23.33-103.3-15.44-58.56-69.19-81-115.59-77.35-41.53,3.31-85.62,28.68-90.5,77.89a4.56,4.56,0,0,1-9.08,0c-3.83-38.66-34.53-69.38-78.21-78.26-34.78-7.07-84.5,1.33-110.15,48.27C1128,216.32,1130,236.08,1130,236.26a4.57,4.57,0,0,1-9.06,1.13c-.11-.91-2.54-22.56,16.75-57.87,23.06-42.23,70.14-63,120-52.84,39.62,8.06,69.48,32.81,80.88,65.46,14-40.81,55.24-62.13,94.37-65.24,50.2-4,108.34,20.46,125.13,84.11,33.16,125.78-197.15,283-217.55,292.39a4.49,4.49,0,0,1-1.9.42,4.62,4.62,0,0,1-2-.45c-9.41-4.53-70.48-47-112.79-93.65a4.56,4.56,0,0,1,6.76-6.13c39,43,95,82.83,108.09,90.52,15.25-8.23,73.46-48.37,124.64-99.83,19.86-20,40.7-43.72,57.21-69.07H1238l-11,28.43a4.56,4.56,0,0,1-8.79-1.22l-2.28-24.5-9.79,82.94a4.56,4.56,0,0,1-9.08-.15L1184,256.85,1170.86,469a4.59,4.59,0,0,1-4.46,4.28h-.09a4.56,4.56,0,0,1-4.54-4.1l-16.4-161.67-3.15,14.12a4.55,4.55,0,0,1-4.45,3.57H126.34a4.56,4.56,0,1,1,0-9.12Z" transform="translate(-26.38 -89.46)"/><path class="cls-8" d="M124.22,315.32H1132l8.49-38.12a4.6,4.6,0,0,1,4.72-3.57,4.55,4.55,0,0,1,4.27,4.1l13.6,134.11,13.48-218.31a4.52,4.52,0,0,1,4.5-4.28h.06a4.56,4.56,0,0,1,4.54,4.17l14.57,171,9.61-81.32a4.62,4.62,0,0,1,4.58-4,4.56,4.56,0,0,1,4.49,4.14l4.48,48.22,5.1-13.22a4.56,4.56,0,0,1,4.26-2.92h288.93a4.53,4.53,0,0,1,2.13.55c20.33-33.75,32.15-69.84,23.33-103.3-15.44-58.56-69.19-81-115.59-77.35-41.53,3.31-85.62,28.68-90.5,77.89a4.56,4.56,0,0,1-9.08,0c-3.83-38.66-34.53-69.38-78.21-78.26-34.78-7.07-84.5,1.33-110.15,48.27-17.71,32.43-15.71,52.19-15.69,52.37a4.57,4.57,0,0,1-9.06,1.13c-.11-.91-2.54-22.56,16.75-57.87,23.06-42.23,70.14-63,120-52.84,39.62,8.06,69.48,32.81,80.88,65.46,14-40.82,55.24-62.13,94.37-65.24,50.2-4,108.34,20.46,125.13,84.11,33.16,125.78-197.15,283-217.55,292.39a4.49,4.49,0,0,1-1.9.42,4.62,4.62,0,0,1-2-.45c-9.41-4.53-70.48-47-112.79-93.65a4.56,4.56,0,0,1,6.76-6.13c39,43,95,82.83,108.09,90.51,15.25-8.23,73.46-48.36,124.64-99.82,19.86-20,40.7-43.72,57.21-69.07H1235.88l-11,28.43a4.56,4.56,0,0,1-8.79-1.22l-2.28-24.5L1204,410.09a4.56,4.56,0,0,1-9.08-.15l-13.11-153.86-13.1,212.16a4.58,4.58,0,0,1-4.46,4.27h-.09a4.57,4.57,0,0,1-4.54-4.11l-16.4-161.66-3.15,14.12a4.55,4.55,0,0,1-4.45,3.57H124.22a4.56,4.56,0,1,1,0-9.12Z" transform="translate(-26.38 -89.46)"/><path class="cls-9" d="M122.1,314.55H1129.88l8.49-38.13a4.6,4.6,0,0,1,4.72-3.56,4.55,4.55,0,0,1,4.27,4.1L1161,411.07l13.48-218.31a4.52,4.52,0,0,1,4.5-4.28h.06a4.56,4.56,0,0,1,4.54,4.17l14.57,171,9.61-81.32a4.62,4.62,0,0,1,4.58-4,4.56,4.56,0,0,1,4.49,4.14l4.48,48.22,5.1-13.23a4.57,4.57,0,0,1,4.26-2.91h288.93a4.53,4.53,0,0,1,2.13.55c20.33-33.75,32.15-69.84,23.33-103.3-15.44-58.57-69.19-81-115.59-77.35-41.53,3.31-85.62,28.68-90.5,77.89a4.56,4.56,0,0,1-9.08,0c-3.83-38.66-34.53-69.38-78.21-78.26-34.78-7.07-84.5,1.32-110.15,48.27-17.71,32.43-15.71,52.19-15.69,52.36a4.57,4.57,0,0,1-9.06,1.14c-.11-.91-2.54-22.56,16.75-57.87,23.06-42.23,70.14-63,120-52.84,39.62,8.06,69.48,32.81,80.88,65.46,14-40.82,55.24-62.13,94.37-65.24,50.2-4,108.34,20.45,125.13,84.11,33.16,125.78-197.15,283-217.55,292.39a4.49,4.49,0,0,1-1.9.42,4.62,4.62,0,0,1-2-.45c-9.41-4.53-70.48-47-112.79-93.65a4.56,4.56,0,0,1,6.76-6.13c39,43,95,82.83,108.09,90.51,15.25-8.23,73.46-48.36,124.64-99.82,19.86-20,40.7-43.72,57.21-69.07H1233.76l-11,28.43a4.56,4.56,0,0,1-8.79-1.22l-2.28-24.5-9.79,82.93a4.56,4.56,0,0,1-9.08-.14l-13.11-153.86-13.1,212.15a4.58,4.58,0,0,1-4.46,4.28h-.09a4.57,4.57,0,0,1-4.54-4.11L1141.13,306,1138,320.1a4.55,4.55,0,0,1-4.45,3.57H122.1a4.56,4.56,0,1,1,0-9.12Z" transform="translate(-26.38 -89.46)"/><path class="cls-10" d="M120,313.78H1127.76l8.49-38.13a4.6,4.6,0,0,1,4.72-3.56,4.55,4.55,0,0,1,4.27,4.1l13.6,134.11L1172.32,192a4.54,4.54,0,0,1,4.5-4.29s0,0,.06,0a4.57,4.57,0,0,1,4.54,4.18l14.57,171,9.61-81.32a4.63,4.63,0,0,1,4.58-4,4.57,4.57,0,0,1,4.49,4.15l4.48,48.22,5.1-13.23a4.57,4.57,0,0,1,4.26-2.91h288.93a4.53,4.53,0,0,1,2.13.55c20.33-33.75,32.15-69.84,23.33-103.3-15.44-58.57-69.19-81.05-115.59-77.35-41.53,3.31-85.62,28.68-90.5,77.89a4.56,4.56,0,0,1-9.08,0c-3.83-38.66-34.53-69.38-78.21-78.26-34.78-7.07-84.5,1.32-110.15,48.27-17.71,32.43-15.71,52.19-15.69,52.36a4.57,4.57,0,1,1-9.06,1.13c-.11-.9-2.54-22.55,16.75-57.87,23.06-42.22,70.14-63,120-52.83,39.62,8.06,69.48,32.81,80.88,65.46,14-40.82,55.24-62.13,94.37-65.25,50.2-4,108.34,20.46,125.13,84.12,33.16,125.78-197.15,283-217.55,292.39a4.49,4.49,0,0,1-1.9.42,4.62,4.62,0,0,1-2-.45c-9.41-4.53-70.48-47-112.79-93.65a4.56,4.56,0,1,1,6.76-6.13c39,43,95,82.83,108.09,90.51,15.25-8.23,73.46-48.36,124.64-99.82,19.86-20,40.7-43.72,57.21-69.07H1231.64l-11,28.43a4.56,4.56,0,0,1-8.79-1.22l-2.28-24.5-9.79,82.93a4.56,4.56,0,0,1-9.08-.14L1177.6,254.53l-13.1,212.16A4.58,4.58,0,0,1,1160,471H1160a4.57,4.57,0,0,1-4.54-4.11L1139,305.2l-3.15,14.13a4.55,4.55,0,0,1-4.45,3.57H120a4.56,4.56,0,0,1,0-9.12Z" transform="translate(-26.38 -89.46)"/><path class="cls-11" d="M117.86,313H1125.64l8.49-38.12a4.6,4.6,0,0,1,4.72-3.56,4.55,4.55,0,0,1,4.27,4.1l13.6,134.11,13.48-218.31a4.54,4.54,0,0,1,4.5-4.29h.06a4.57,4.57,0,0,1,4.54,4.18l14.57,171,9.61-81.32a4.63,4.63,0,0,1,4.58-4,4.57,4.57,0,0,1,4.49,4.14l4.48,48.23,5.1-13.23a4.56,4.56,0,0,1,4.26-2.92h288.93a4.65,4.65,0,0,1,2.13.55c20.33-33.74,32.15-69.83,23.33-103.29-15.44-58.57-69.19-81-115.59-77.35-41.53,3.31-85.62,28.68-90.5,77.89a4.56,4.56,0,0,1-9.08,0c-3.83-38.66-34.53-69.38-78.21-78.26-34.78-7.07-84.5,1.32-110.15,48.27-17.71,32.43-15.71,52.19-15.69,52.36a4.57,4.57,0,0,1-9.06,1.13c-.11-.9-2.54-22.55,16.75-57.87,23.06-42.22,70.14-63,120-52.83,39.62,8.06,69.48,32.81,80.88,65.45,14-40.81,55.24-62.12,94.37-65.24,50.2-4,108.34,20.46,125.13,84.12,33.16,125.78-197.15,283-217.55,292.39a4.49,4.49,0,0,1-1.9.42,4.62,4.62,0,0,1-2-.45c-9.41-4.53-70.48-47-112.79-93.65a4.56,4.56,0,1,1,6.76-6.13c39,43,95,82.83,108.09,90.51,15.25-8.23,73.46-48.36,124.64-99.82,19.86-20,40.7-43.72,57.21-69.07H1229.52l-11,28.43a4.56,4.56,0,0,1-8.79-1.22l-2.28-24.5-9.79,82.93a4.56,4.56,0,0,1-9.08-.14l-13.11-153.87-13.1,212.16a4.59,4.59,0,0,1-4.46,4.28h-.09a4.56,4.56,0,0,1-4.54-4.1l-16.4-161.67-3.15,14.13a4.55,4.55,0,0,1-4.45,3.57H117.86a4.57,4.57,0,0,1,0-9.13Z" transform="translate(-26.38 -89.46)"/><path class="cls-11" d="M115.74,312.23H1123.52l8.49-38.12a4.6,4.6,0,0,1,4.72-3.56,4.55,4.55,0,0,1,4.27,4.09l13.6,134.12,13.48-218.32a4.54,4.54,0,0,1,4.5-4.28h.06a4.56,4.56,0,0,1,4.54,4.18l14.57,171,9.61-81.32a4.63,4.63,0,0,1,4.58-4,4.57,4.57,0,0,1,4.49,4.14l4.48,48.22,5.1-13.22a4.56,4.56,0,0,1,4.26-2.92H1513.2a4.53,4.53,0,0,1,2.13.55c20.33-33.75,32.15-69.83,23.33-103.29-15.44-58.57-69.19-81.05-115.59-77.35-41.53,3.31-85.62,28.67-90.5,77.89a4.56,4.56,0,0,1-9.08,0c-3.83-38.66-34.53-69.38-78.21-78.26-34.78-7.07-84.5,1.32-110.15,48.27-17.71,32.42-15.71,52.19-15.69,52.36a4.57,4.57,0,0,1-9.06,1.13c-.11-.9-2.54-22.55,16.75-57.87,23.06-42.22,70.14-63,120-52.83,39.62,8,69.48,32.8,80.88,65.45,14-40.81,55.24-62.12,94.37-65.24,50.2-4,108.34,20.46,125.13,84.12,33.16,125.77-197.15,283-217.55,292.39a4.49,4.49,0,0,1-1.9.42,4.77,4.77,0,0,1-2-.45c-9.41-4.53-70.48-47-112.79-93.65a4.56,4.56,0,1,1,6.76-6.13c39,43,95,82.83,108.09,90.51,15.25-8.23,73.46-48.36,124.64-99.82,19.86-20,40.7-43.72,57.21-69.07H1227.4l-11,28.43a4.56,4.56,0,0,1-8.79-1.22l-2.28-24.5L1195.55,407a4.56,4.56,0,0,1-9.08-.14L1173.36,253l-13.1,212.16a4.59,4.59,0,0,1-4.46,4.28h-.09a4.56,4.56,0,0,1-4.54-4.1l-16.4-161.67-3.15,14.13a4.56,4.56,0,0,1-4.45,3.57H115.74a4.57,4.57,0,0,1,0-9.13Z" transform="translate(-26.38 -89.46)"/><path class="cls-12" d="M113.62,311.46H1121.4l8.49-38.12a4.6,4.6,0,0,1,4.72-3.56,4.55,4.55,0,0,1,4.27,4.09L1152.48,408,1166,189.67a4.54,4.54,0,0,1,4.5-4.28h.06a4.56,4.56,0,0,1,4.54,4.18l14.57,171,9.61-81.32a4.63,4.63,0,0,1,4.58-4,4.57,4.57,0,0,1,4.49,4.14l4.48,48.22,5.1-13.22a4.56,4.56,0,0,1,4.26-2.92h288.93a4.53,4.53,0,0,1,2.13.55c20.33-33.75,32.15-69.83,23.33-103.29-15.44-58.57-69.19-81-115.59-77.35-41.53,3.31-85.62,28.67-90.5,77.89a4.56,4.56,0,0,1-9.08,0c-3.83-38.66-34.53-69.38-78.21-78.26-34.78-7.07-84.5,1.32-110.15,48.27-17.71,32.42-15.71,52.19-15.69,52.36a4.57,4.57,0,0,1-9.06,1.13c-.11-.9-2.54-22.55,16.75-57.87,23.06-42.22,70.14-63,120-52.83,39.62,8.05,69.48,32.8,80.88,65.45,14-40.81,55.24-62.12,94.37-65.24,50.2-4,108.34,20.46,125.13,84.12,33.16,125.77-197.15,283-217.55,292.39a4.48,4.48,0,0,1-1.9.41,4.62,4.62,0,0,1-2-.45c-9.41-4.52-70.48-47-112.79-93.64a4.56,4.56,0,1,1,6.76-6.13c39,43,95,82.83,108.09,90.51,15.25-8.23,73.46-48.36,124.64-99.82,19.86-20,40.7-43.72,57.21-69.07H1225.28l-11,28.43a4.56,4.56,0,0,1-8.79-1.22l-2.28-24.5-9.79,82.93a4.56,4.56,0,0,1-9.08-.15l-13.11-153.86-13.1,212.16a4.59,4.59,0,0,1-4.46,4.28h-.09a4.56,4.56,0,0,1-4.54-4.1l-16.4-161.67L1129.5,317a4.56,4.56,0,0,1-4.45,3.57H113.62a4.57,4.57,0,0,1,0-9.13Z" transform="translate(-26.38 -89.46)"/><path class="cls-13" d="M111.5,310.69H1119.28l8.49-38.12a4.6,4.6,0,0,1,4.72-3.56,4.55,4.55,0,0,1,4.27,4.09l13.6,134.12,13.48-218.32a4.54,4.54,0,0,1,4.5-4.28h.06a4.56,4.56,0,0,1,4.54,4.18l14.57,171,9.61-81.31a4.63,4.63,0,0,1,4.58-4,4.57,4.57,0,0,1,4.49,4.14l4.48,48.22,5.1-13.22a4.56,4.56,0,0,1,4.26-2.92H1509a4.53,4.53,0,0,1,2.13.55c20.33-33.75,32.15-69.83,23.33-103.29-15.44-58.57-69.19-81-115.59-77.35-41.53,3.31-85.62,28.67-90.5,77.89a4.56,4.56,0,0,1-9.08,0c-3.83-38.66-34.53-69.38-78.21-78.26-34.78-7.07-84.5,1.32-110.15,48.27-17.71,32.42-15.71,52.19-15.69,52.36a4.57,4.57,0,0,1-9.06,1.13c-.11-.9-2.54-22.56,16.75-57.87,23.06-42.22,70.14-63,120-52.83,39.62,8,69.48,32.8,80.88,65.45,14-40.81,55.24-62.12,94.37-65.24,50.2-4,108.34,20.46,125.13,84.12,33.16,125.77-197.15,283-217.55,292.39a4.48,4.48,0,0,1-1.9.41,4.62,4.62,0,0,1-2-.45c-9.41-4.52-70.48-47-112.79-93.65a4.56,4.56,0,0,1,6.76-6.13c39,43,95,82.84,108.09,90.52,15.25-8.23,73.46-48.36,124.64-99.82,19.86-20,40.7-43.72,57.21-69.07H1223.16l-11,28.43a4.56,4.56,0,0,1-8.79-1.23l-2.28-24.49-9.79,82.93a4.56,4.56,0,0,1-9.08-.15l-13.11-153.86L1156,463.61a4.59,4.59,0,0,1-4.46,4.28h-.09a4.56,4.56,0,0,1-4.54-4.1l-16.4-161.67-3.15,14.13a4.56,4.56,0,0,1-4.45,3.57H111.5a4.57,4.57,0,0,1,0-9.13Z" transform="translate(-26.38 -89.46)"/><path class="cls-14" d="M109.38,309.92H1117.16l8.49-38.12a4.6,4.6,0,0,1,4.72-3.56,4.54,4.54,0,0,1,4.27,4.09l13.6,134.12,13.48-218.32a4.54,4.54,0,0,1,4.5-4.28h.06a4.56,4.56,0,0,1,4.54,4.18l14.57,171,9.61-81.31a4.63,4.63,0,0,1,4.58-4,4.57,4.57,0,0,1,4.49,4.14l4.48,48.22,5.1-13.22a4.56,4.56,0,0,1,4.26-2.92h288.93a4.53,4.53,0,0,1,2.13.55c20.33-33.75,32.15-69.83,23.33-103.3-15.44-58.56-69.19-81-115.59-77.34-41.53,3.31-85.62,28.67-90.5,77.89a4.56,4.56,0,0,1-9.08,0c-3.83-38.66-34.53-69.38-78.21-78.26-34.78-7.07-84.5,1.32-110.15,48.27-17.71,32.42-15.71,52.19-15.69,52.36a4.57,4.57,0,0,1-9.06,1.13c-.11-.9-2.54-22.56,16.75-57.87,23.06-42.22,70.14-63,120-52.83,39.62,8,69.48,32.8,80.88,65.45,14-40.81,55.24-62.12,94.37-65.24,50.2-4,108.34,20.46,125.13,84.12,33.16,125.77-197.15,283-217.55,292.39a4.59,4.59,0,0,1-3.88,0c-9.41-4.52-70.48-47-112.79-93.65a4.56,4.56,0,0,1,6.76-6.13c39,43,95,82.84,108.09,90.52,15.25-8.23,73.46-48.36,124.64-99.82,19.86-20,40.7-43.72,57.21-69.07H1221l-11,28.43a4.56,4.56,0,0,1-8.79-1.23L1199,321.76l-9.79,82.93a4.56,4.56,0,0,1-9.08-.15L1167,250.68l-13.1,212.16a4.59,4.59,0,0,1-4.46,4.28h-.09a4.56,4.56,0,0,1-4.54-4.1l-16.4-161.67-3.15,14.13a4.56,4.56,0,0,1-4.45,3.57H109.38a4.57,4.57,0,0,1,0-9.13Z" transform="translate(-26.38 -89.46)"/><path class="cls-14" d="M107.26,309.15H1115l8.49-38.12a4.6,4.6,0,0,1,4.72-3.56,4.54,4.54,0,0,1,4.27,4.09l13.6,134.12,13.48-218.32a4.54,4.54,0,0,1,4.5-4.28h.06a4.56,4.56,0,0,1,4.54,4.17l14.57,171,9.61-81.31a4.63,4.63,0,0,1,4.58-4,4.57,4.57,0,0,1,4.49,4.14l4.48,48.22,5.1-13.22a4.56,4.56,0,0,1,4.26-2.92h288.93a4.53,4.53,0,0,1,2.13.55c20.33-33.75,32.15-69.83,23.33-103.3-15.44-58.56-69.19-81-115.59-77.35-41.53,3.31-85.62,28.68-90.5,77.89a4.56,4.56,0,0,1-9.08,0c-3.83-38.65-34.53-69.37-78.21-78.25C1202,121.62,1152.3,130,1126.65,177c-17.71,32.43-15.71,52.2-15.69,52.37a4.57,4.57,0,0,1-9.06,1.13c-.11-.9-2.54-22.56,16.75-57.87,23.06-42.22,70.14-63,120-52.83,39.62,8,69.48,32.8,80.88,65.45,14-40.81,55.24-62.12,94.37-65.24,50.2-4,108.34,20.46,125.13,84.12,33.16,125.77-197.15,283-217.55,292.39a4.59,4.59,0,0,1-3.88,0c-9.41-4.52-70.48-47-112.79-93.65a4.56,4.56,0,0,1,6.76-6.13c39,43,95,82.84,108.09,90.52,15.25-8.23,73.46-48.36,124.64-99.82,19.86-20,40.7-43.73,57.21-69.07H1218.92l-11,28.43a4.56,4.56,0,0,1-8.79-1.23L1196.86,321l-9.79,82.93a4.56,4.56,0,0,1-9.08-.15l-13.11-153.86-13.1,212.16a4.59,4.59,0,0,1-4.46,4.28h-.09a4.56,4.56,0,0,1-4.54-4.1l-16.4-161.67-3.15,14.13a4.56,4.56,0,0,1-4.45,3.57H107.26a4.57,4.57,0,0,1,0-9.13Z" transform="translate(-26.38 -89.46)"/><path class="cls-15" d="M105.14,308.38H1112.92l8.49-38.12a4.6,4.6,0,0,1,4.72-3.56,4.54,4.54,0,0,1,4.27,4.09L1144,404.91l13.48-218.32a4.53,4.53,0,0,1,4.5-4.28h.06a4.56,4.56,0,0,1,4.54,4.17l14.57,171,9.61-81.31a4.63,4.63,0,0,1,4.58-4,4.57,4.57,0,0,1,4.49,4.14l4.48,48.22,5.1-13.22a4.56,4.56,0,0,1,4.26-2.92H1502.6a4.53,4.53,0,0,1,2.13.55c20.33-33.75,32.15-69.83,23.33-103.3-15.44-58.56-69.19-81-115.59-77.35-41.53,3.31-85.62,28.68-90.5,77.89a4.56,4.56,0,0,1-9.08,0c-3.83-38.66-34.53-69.37-78.21-78.25-34.78-7.07-84.5,1.32-110.15,48.26-17.71,32.43-15.71,52.2-15.69,52.37a4.57,4.57,0,0,1-9.06,1.13c-.11-.9-2.54-22.56,16.75-57.87,23.06-42.22,70.14-63,120-52.84,39.62,8.06,69.48,32.81,80.88,65.46,14-40.81,55.24-62.12,94.37-65.24,50.2-4,108.34,20.46,125.13,84.12,33.16,125.77-197.15,283-217.55,292.39a4.59,4.59,0,0,1-3.88,0c-9.41-4.53-70.48-47-112.79-93.65a4.56,4.56,0,0,1,6.76-6.13c39,43,95,82.84,108.09,90.52,15.25-8.23,73.46-48.36,124.64-99.82,19.86-20,40.7-43.73,57.21-69.08H1216.8l-11,28.43a4.56,4.56,0,0,1-8.79-1.22l-2.28-24.49L1185,403.15a4.56,4.56,0,0,1-9.08-.15l-13.11-153.86-13.1,212.16a4.59,4.59,0,0,1-4.46,4.28h-.09a4.56,4.56,0,0,1-4.54-4.1l-16.4-161.67L1121,313.93a4.55,4.55,0,0,1-4.45,3.57H105.14a4.56,4.56,0,0,1,0-9.12Z" transform="translate(-26.38 -89.46)"/><path class="cls-16" d="M103,307.61H1110.8l8.49-38.12a4.6,4.6,0,0,1,4.72-3.56,4.54,4.54,0,0,1,4.27,4.09l13.6,134.11,13.48-218.31a4.52,4.52,0,0,1,4.5-4.28h.06a4.56,4.56,0,0,1,4.54,4.17l14.57,171,9.61-81.31a4.63,4.63,0,0,1,4.58-4,4.57,4.57,0,0,1,4.49,4.14l4.48,48.22,5.1-13.22a4.56,4.56,0,0,1,4.26-2.92h288.93a4.53,4.53,0,0,1,2.13.55c20.33-33.75,32.15-69.83,23.33-103.3-15.44-58.56-69.19-81-115.59-77.35-41.53,3.31-85.62,28.68-90.5,77.89a4.56,4.56,0,0,1-9.08,0c-3.83-38.66-34.53-69.37-78.21-78.26-34.78-7.06-84.5,1.33-110.15,48.27-17.71,32.43-15.71,52.2-15.69,52.37a4.57,4.57,0,0,1-9.06,1.13c-.11-.91-2.54-22.56,16.75-57.87,23.06-42.22,70.14-63,120-52.84,39.62,8.06,69.48,32.81,80.88,65.46,14-40.81,55.24-62.12,94.37-65.24,50.2-4,108.34,20.46,125.13,84.12,33.16,125.77-197.15,283-217.55,292.38a4.49,4.49,0,0,1-1.9.42,4.62,4.62,0,0,1-2-.45c-9.41-4.53-70.48-47-112.79-93.65a4.56,4.56,0,0,1,6.76-6.13c39,43,95,82.84,108.09,90.52,15.25-8.23,73.46-48.36,124.64-99.82,19.86-20,40.7-43.73,57.21-69.08H1214.68l-11,28.43a4.56,4.56,0,0,1-8.79-1.22l-2.28-24.49-9.79,82.93a4.56,4.56,0,0,1-9.08-.15l-13.11-153.86-13.1,212.16a4.59,4.59,0,0,1-4.46,4.28H1143a4.56,4.56,0,0,1-4.54-4.1L1122.05,299l-3.15,14.12a4.55,4.55,0,0,1-4.45,3.57H103a4.56,4.56,0,0,1,0-9.12Z" transform="translate(-26.38 -89.46)"/><path class="cls-17" d="M100.9,306.84H1108.68l8.49-38.12a4.62,4.62,0,0,1,4.72-3.57,4.55,4.55,0,0,1,4.27,4.1l13.6,134.11,13.48-218.31a4.52,4.52,0,0,1,4.5-4.28h.06a4.56,4.56,0,0,1,4.54,4.17l14.57,171,9.61-81.31a4.63,4.63,0,0,1,4.58-4,4.56,4.56,0,0,1,4.49,4.14l4.48,48.22,5.1-13.22a4.56,4.56,0,0,1,4.26-2.92h288.93a4.53,4.53,0,0,1,2.13.55c20.33-33.75,32.15-69.83,23.33-103.3-15.44-58.56-69.19-81-115.59-77.35-41.53,3.31-85.62,28.68-90.5,77.89a4.56,4.56,0,0,1-9.08,0c-3.83-38.66-34.53-69.38-78.21-78.26-34.78-7.06-84.5,1.33-110.15,48.27-17.71,32.43-15.71,52.2-15.69,52.37a4.57,4.57,0,0,1-9.06,1.13c-.11-.91-2.54-22.56,16.75-57.87,23.06-42.23,70.14-63,120-52.84,39.62,8.06,69.48,32.81,80.88,65.46,14-40.81,55.24-62.12,94.37-65.24,50.2-4,108.34,20.46,125.13,84.12,33.16,125.77-197.15,283-217.55,292.38a4.49,4.49,0,0,1-1.9.42,4.62,4.62,0,0,1-2-.45c-9.41-4.53-70.48-47-112.79-93.65a4.56,4.56,0,0,1,6.76-6.13c39,43,95,82.84,108.09,90.52,15.25-8.23,73.46-48.36,124.64-99.83,19.86-20,40.7-43.72,57.21-69.07H1212.56l-11,28.43a4.56,4.56,0,0,1-8.79-1.22l-2.28-24.49-9.79,82.93a4.56,4.56,0,0,1-9.08-.15L1158.52,247.6l-13.1,212.16A4.59,4.59,0,0,1,1141,464h-.09a4.56,4.56,0,0,1-4.54-4.1l-16.4-161.67-3.15,14.12a4.55,4.55,0,0,1-4.45,3.57H100.9a4.56,4.56,0,1,1,0-9.12Z" transform="translate(-26.38 -89.46)"/><path class="cls-18" d="M98.78,306.07H1106.56l8.49-38.12a4.61,4.61,0,0,1,4.72-3.57,4.55,4.55,0,0,1,4.27,4.1l13.6,134.11,13.48-218.31a4.52,4.52,0,0,1,4.5-4.28h.06a4.56,4.56,0,0,1,4.54,4.17l14.57,171,9.61-81.32a4.63,4.63,0,0,1,4.58-4,4.56,4.56,0,0,1,4.49,4.14l4.48,48.22,5.1-13.22a4.56,4.56,0,0,1,4.26-2.92h288.93a4.53,4.53,0,0,1,2.13.55c20.33-33.75,32.15-69.83,23.33-103.3-15.44-58.56-69.19-81-115.59-77.35-41.53,3.31-85.62,28.68-90.5,77.89a4.56,4.56,0,0,1-9.08,0c-3.83-38.66-34.53-69.38-78.21-78.26-34.78-7.07-84.5,1.33-110.15,48.27-17.71,32.43-15.71,52.2-15.69,52.37a4.57,4.57,0,0,1-9.06,1.13c-.11-.91-2.54-22.56,16.75-57.87,23.06-42.23,70.14-63,120-52.84,39.62,8.06,69.48,32.81,80.88,65.46,14-40.81,55.24-62.13,94.37-65.24,50.2-4,108.34,20.46,125.13,84.12,33.16,125.77-197.15,283-217.55,292.38a4.49,4.49,0,0,1-1.9.42,4.62,4.62,0,0,1-2-.45c-9.41-4.53-70.48-47-112.79-93.65a4.56,4.56,0,0,1,6.76-6.13c39,43,95,82.84,108.09,90.52,15.25-8.23,73.46-48.37,124.64-99.83,19.86-20,40.7-43.72,57.21-69.07H1210.44l-11,28.43a4.56,4.56,0,0,1-8.79-1.22l-2.28-24.5-9.79,82.94a4.56,4.56,0,0,1-9.08-.15L1156.4,246.83,1143.3,459a4.59,4.59,0,0,1-4.46,4.28h-.09a4.56,4.56,0,0,1-4.54-4.1l-16.4-161.67-3.15,14.12a4.55,4.55,0,0,1-4.45,3.57H98.78a4.56,4.56,0,1,1,0-9.12Z" transform="translate(-26.38 -89.46)"/><path class="cls-18" d="M96.66,305.3H1104.44l8.49-38.12a4.61,4.61,0,0,1,4.72-3.57,4.55,4.55,0,0,1,4.27,4.1l13.6,134.11L1149,183.51a4.52,4.52,0,0,1,4.5-4.28h.06a4.56,4.56,0,0,1,4.54,4.17l14.57,171,9.61-81.32a4.62,4.62,0,0,1,4.58-4,4.56,4.56,0,0,1,4.49,4.14l4.48,48.22,5.1-13.22a4.56,4.56,0,0,1,4.26-2.92h288.93a4.53,4.53,0,0,1,2.13.55c20.33-33.75,32.15-69.83,23.33-103.3-15.44-58.56-69.19-81-115.59-77.35-41.53,3.31-85.62,28.68-90.5,77.89a4.56,4.56,0,0,1-9.08,0c-3.83-38.66-34.53-69.38-78.21-78.26-34.78-7.07-84.5,1.33-110.15,48.27-17.71,32.43-15.71,52.19-15.69,52.37a4.57,4.57,0,0,1-9.06,1.13c-.11-.91-2.54-22.56,16.75-57.87,23.06-42.23,70.14-63,120-52.84,39.62,8.06,69.48,32.81,80.88,65.46,14-40.82,55.24-62.13,94.37-65.24,50.2-4,108.34,20.46,125.13,84.11,33.16,125.78-197.15,283-217.55,292.39a4.49,4.49,0,0,1-1.9.42,4.62,4.62,0,0,1-2-.45c-9.41-4.53-70.48-47-112.79-93.65a4.56,4.56,0,0,1,6.76-6.13c39,43,95,82.83,108.09,90.51,15.25-8.23,73.46-48.36,124.64-99.82,19.86-20,40.7-43.72,57.21-69.07H1208.32l-11,28.43a4.56,4.56,0,0,1-8.79-1.22l-2.28-24.5-9.79,82.94a4.56,4.56,0,0,1-9.08-.15l-13.11-153.86-13.1,212.16a4.6,4.6,0,0,1-4.46,4.28h-.09a4.57,4.57,0,0,1-4.54-4.11l-16.4-161.66-3.15,14.12a4.55,4.55,0,0,1-4.45,3.57H96.66a4.56,4.56,0,1,1,0-9.12Z" transform="translate(-26.38 -89.46)"/><path class="cls-19" d="M94.54,304.53H1102.32l8.49-38.13a4.61,4.61,0,0,1,4.72-3.56,4.55,4.55,0,0,1,4.27,4.1l13.6,134.11,13.48-218.31a4.52,4.52,0,0,1,4.5-4.28h.06a4.56,4.56,0,0,1,4.54,4.17l14.57,171,9.61-81.32a4.62,4.62,0,0,1,4.58-4,4.56,4.56,0,0,1,4.49,4.14l4.48,48.22,5.1-13.23a4.57,4.57,0,0,1,4.26-2.91H1492a4.53,4.53,0,0,1,2.13.55c20.33-33.75,32.15-69.84,23.33-103.3-15.44-58.56-69.19-81-115.59-77.35-41.53,3.31-85.62,28.68-90.5,77.89a4.56,4.56,0,0,1-9.08,0c-3.83-38.66-34.53-69.38-78.21-78.26-34.78-7.07-84.5,1.32-110.15,48.27-17.71,32.43-15.71,52.19-15.69,52.36a4.57,4.57,0,0,1-9.06,1.14c-.11-.91-2.54-22.56,16.75-57.87,23.06-42.23,70.14-63,120-52.84,39.62,8.06,69.48,32.81,80.88,65.46,14-40.82,55.24-62.13,94.37-65.24,50.2-4,108.34,20.45,125.13,84.11,33.16,125.78-197.15,283-217.55,292.39a4.49,4.49,0,0,1-1.9.42,4.62,4.62,0,0,1-2-.45c-9.41-4.53-70.48-47-112.79-93.65a4.56,4.56,0,0,1,6.76-6.13c39,43,95,82.83,108.09,90.51,15.25-8.23,73.46-48.36,124.64-99.82,19.86-20,40.7-43.72,57.21-69.07H1206.2l-11,28.43a4.56,4.56,0,0,1-8.79-1.22l-2.28-24.5-9.79,82.93a4.56,4.56,0,0,1-9.08-.14l-13.11-153.86-13.1,212.15a4.58,4.58,0,0,1-4.46,4.28h-.09a4.57,4.57,0,0,1-4.54-4.11L1113.57,296l-3.15,14.12a4.55,4.55,0,0,1-4.45,3.57H94.54a4.56,4.56,0,0,1,0-9.12Z" transform="translate(-26.38 -89.46)"/><path class="cls-20" d="M92.42,303.76H1100.2l8.49-38.13a4.61,4.61,0,0,1,4.72-3.56,4.55,4.55,0,0,1,4.27,4.1l13.6,134.11L1144.76,182a4.52,4.52,0,0,1,4.5-4.28h.06a4.56,4.56,0,0,1,4.54,4.17l14.57,171,9.61-81.32a4.62,4.62,0,0,1,4.58-4,4.55,4.55,0,0,1,4.49,4.14l4.48,48.22,5.1-13.23a4.57,4.57,0,0,1,4.26-2.91h288.93a4.53,4.53,0,0,1,2.13.55c20.33-33.75,32.15-69.84,23.33-103.3-15.44-58.57-69.19-81-115.59-77.35-41.53,3.31-85.62,28.68-90.5,77.89a4.56,4.56,0,0,1-9.08,0c-3.83-38.66-34.53-69.38-78.21-78.26-34.78-7.07-84.5,1.32-110.15,48.27-17.71,32.43-15.71,52.19-15.69,52.36a4.57,4.57,0,1,1-9.06,1.14c-.11-.91-2.54-22.56,16.75-57.88,23.06-42.22,70.14-63,120-52.83,39.62,8.06,69.48,32.81,80.88,65.46,14-40.82,55.24-62.13,94.37-65.24,50.2-4,108.34,20.45,125.13,84.11,33.16,125.78-197.15,283-217.55,292.39a4.49,4.49,0,0,1-1.9.42,4.62,4.62,0,0,1-2-.45c-9.41-4.53-70.48-47-112.79-93.65a4.56,4.56,0,1,1,6.76-6.13c39,43,95,82.83,108.09,90.51,15.25-8.23,73.46-48.36,124.64-99.82,19.86-20,40.7-43.72,57.21-69.07H1204.08l-11,28.43a4.56,4.56,0,0,1-8.79-1.22l-2.28-24.5-9.79,82.93a4.56,4.56,0,0,1-9.08-.14L1150,244.51l-13.1,212.16a4.58,4.58,0,0,1-4.46,4.28h-.09a4.57,4.57,0,0,1-4.54-4.11l-16.4-161.67-3.15,14.13a4.55,4.55,0,0,1-4.45,3.57H92.42a4.56,4.56,0,0,1,0-9.12Z" transform="translate(-26.38 -89.46)"/><path class="cls-21" d="M90.3,303H1098.08l8.49-38.12a4.61,4.61,0,0,1,4.72-3.56,4.55,4.55,0,0,1,4.27,4.1l13.6,134.11,13.48-218.31a4.54,4.54,0,0,1,4.5-4.29h.06a4.57,4.57,0,0,1,4.54,4.18l14.57,171,9.61-81.32a4.63,4.63,0,0,1,4.58-4,4.57,4.57,0,0,1,4.49,4.14l4.48,48.23,5.1-13.23a4.56,4.56,0,0,1,4.26-2.92h288.93a4.65,4.65,0,0,1,2.13.55c20.33-33.74,32.15-69.83,23.33-103.29-15.44-58.57-69.19-81.05-115.59-77.35-41.53,3.31-85.62,28.68-90.5,77.89a4.56,4.56,0,0,1-9.08,0c-3.83-38.66-34.53-69.38-78.21-78.26-34.78-7.07-84.5,1.32-110.15,48.27C1092,203.22,1094,223,1094,223.15a4.57,4.57,0,0,1-9.06,1.13c-.11-.9-2.54-22.55,16.75-57.87,23.06-42.22,70.14-63,120-52.83,39.62,8.06,69.48,32.81,80.88,65.45,14-40.81,55.24-62.12,94.37-65.24,50.2-4,108.34,20.46,125.13,84.12,33.16,125.78-197.15,283-217.55,292.39a4.49,4.49,0,0,1-1.9.42,4.62,4.62,0,0,1-2-.45c-9.41-4.53-70.48-47-112.79-93.65a4.56,4.56,0,1,1,6.76-6.13c39,43,95,82.83,108.09,90.51,15.25-8.23,73.46-48.36,124.64-99.82,19.86-20,40.7-43.72,57.21-69.07H1202l-11,28.43a4.56,4.56,0,0,1-8.79-1.22l-2.28-24.5-9.79,82.93a4.56,4.56,0,0,1-9.08-.14l-13.11-153.87-13.1,212.16a4.59,4.59,0,0,1-4.46,4.28h-.09a4.56,4.56,0,0,1-4.54-4.1l-16.4-161.67-3.15,14.13a4.55,4.55,0,0,1-4.45,3.57H90.3a4.57,4.57,0,0,1,0-9.13Z" transform="translate(-26.38 -89.46)"/><path class="cls-21" d="M88.18,302.21H1096l8.49-38.12a4.61,4.61,0,0,1,4.72-3.56,4.55,4.55,0,0,1,4.27,4.09L1127,398.74l13.48-218.32a4.54,4.54,0,0,1,4.5-4.28h.06a4.57,4.57,0,0,1,4.54,4.18l14.57,171L1173.8,270a4.63,4.63,0,0,1,4.58-4,4.57,4.57,0,0,1,4.49,4.14l4.48,48.22,5.1-13.22a4.56,4.56,0,0,1,4.26-2.92h288.93a4.53,4.53,0,0,1,2.13.55c20.33-33.75,32.15-69.83,23.33-103.29-15.44-58.57-69.19-81-115.59-77.35-41.53,3.31-85.62,28.67-90.5,77.89a4.56,4.56,0,0,1-9.08,0c-3.83-38.66-34.53-69.38-78.21-78.26-34.78-7.07-84.5,1.32-110.15,48.27-17.71,32.42-15.71,52.19-15.69,52.36a4.57,4.57,0,0,1-9.06,1.13c-.11-.9-2.54-22.55,16.75-57.87,23.06-42.22,70.14-63,120-52.83,39.62,8,69.48,32.8,80.88,65.45,14-40.81,55.24-62.12,94.37-65.24,50.2-4,108.34,20.46,125.13,84.12,33.16,125.78-197.15,283-217.55,292.39a4.49,4.49,0,0,1-1.9.42,4.62,4.62,0,0,1-2-.45c-9.41-4.53-70.48-47-112.79-93.65a4.56,4.56,0,1,1,6.76-6.13c39,43,95,82.83,108.09,90.51,15.25-8.23,73.46-48.36,124.64-99.82,19.86-20,40.7-43.72,57.21-69.07H1199.84l-11,28.43a4.56,4.56,0,0,1-8.79-1.22l-2.28-24.5L1168,397a4.56,4.56,0,0,1-9.08-.14L1145.8,243l-13.1,212.16a4.59,4.59,0,0,1-4.46,4.28h-.09a4.56,4.56,0,0,1-4.54-4.1l-16.4-161.67-3.14,14.13a4.58,4.58,0,0,1-4.46,3.57H88.18a4.57,4.57,0,0,1,0-9.13Z" transform="translate(-26.38 -89.46)"/><path class="cls-22" d="M86.06,301.44H1093.84l8.49-38.12a4.61,4.61,0,0,1,4.72-3.56,4.55,4.55,0,0,1,4.27,4.09L1124.92,398l13.48-218.32a4.54,4.54,0,0,1,4.5-4.28h.06a4.56,4.56,0,0,1,4.54,4.18l14.57,171,9.61-81.32a4.63,4.63,0,0,1,4.58-4,4.57,4.57,0,0,1,4.49,4.14l4.48,48.22,5.1-13.22a4.56,4.56,0,0,1,4.26-2.92h288.93a4.53,4.53,0,0,1,2.13.55C1506,268.24,1517.8,232.16,1509,198.7c-15.44-58.57-69.19-81-115.59-77.35-41.53,3.31-85.62,28.67-90.5,77.89a4.56,4.56,0,0,1-9.08,0c-3.83-38.66-34.53-69.38-78.21-78.26-34.78-7.07-84.5,1.32-110.15,48.27-17.71,32.42-15.71,52.19-15.69,52.36a4.57,4.57,0,0,1-9.06,1.13c-.11-.9-2.54-22.55,16.75-57.87,23.06-42.22,70.14-63,120-52.83,39.62,8,69.48,32.8,80.88,65.45,14-40.81,55.24-62.12,94.37-65.24,50.2-4,108.34,20.46,125.13,84.12,33.16,125.77-197.15,283-217.55,292.39a4.48,4.48,0,0,1-1.9.41,4.62,4.62,0,0,1-2-.45c-9.41-4.52-70.48-47-112.79-93.64a4.56,4.56,0,1,1,6.76-6.13c39,43,95,82.83,108.09,90.51,15.25-8.23,73.46-48.36,124.64-99.82,19.86-20,40.7-43.72,57.21-69.07H1197.72l-11,28.43a4.56,4.56,0,0,1-8.79-1.22l-2.28-24.5-9.79,82.93a4.56,4.56,0,0,1-9.08-.15L1143.68,242.2l-13.1,212.16a4.59,4.59,0,0,1-4.46,4.28H1126a4.56,4.56,0,0,1-4.54-4.1l-16.4-161.67L1102,307a4.58,4.58,0,0,1-4.46,3.57H86.06a4.57,4.57,0,0,1,0-9.13Z" transform="translate(-26.38 -89.46)"/><path class="cls-23" d="M83.94,300.67H1091.72l8.49-38.12a4.61,4.61,0,0,1,4.72-3.56,4.55,4.55,0,0,1,4.27,4.09l13.6,134.12,13.48-218.32a4.54,4.54,0,0,1,4.5-4.28h.06a4.56,4.56,0,0,1,4.54,4.18l14.57,171,9.61-81.32a4.63,4.63,0,0,1,4.58-4,4.57,4.57,0,0,1,4.49,4.14l4.48,48.22,5.1-13.22a4.56,4.56,0,0,1,4.26-2.92H1481.4a4.53,4.53,0,0,1,2.13.55c20.33-33.75,32.15-69.83,23.33-103.29-15.44-58.57-69.19-81.05-115.59-77.35-41.53,3.31-85.62,28.67-90.5,77.89a4.56,4.56,0,0,1-9.08,0c-3.83-38.66-34.53-69.38-78.21-78.26-34.78-7.07-84.5,1.32-110.15,48.27-17.71,32.42-15.71,52.19-15.69,52.36a4.57,4.57,0,0,1-9.06,1.13c-.11-.9-2.54-22.56,16.75-57.87,23.06-42.22,70.14-63,120-52.83,39.62,8,69.48,32.8,80.88,65.45,14-40.81,55.24-62.12,94.37-65.24,50.2-4,108.34,20.46,125.13,84.12,33.16,125.77-197.15,283-217.55,292.39a4.48,4.48,0,0,1-1.9.41,4.62,4.62,0,0,1-2-.45c-9.41-4.52-70.48-47-112.79-93.65a4.56,4.56,0,0,1,6.76-6.13c39,43,95,82.84,108.09,90.52,15.25-8.23,73.46-48.36,124.64-99.82,19.86-20,40.7-43.72,57.21-69.07H1195.6l-11,28.43a4.56,4.56,0,0,1-8.79-1.23l-2.28-24.49-9.79,82.93a4.56,4.56,0,0,1-9.08-.15l-13.11-153.86-13.1,212.16a4.59,4.59,0,0,1-4.46,4.28h-.09a4.56,4.56,0,0,1-4.54-4.1L1103,292.1l-3.14,14.13a4.58,4.58,0,0,1-4.46,3.57H83.94a4.57,4.57,0,0,1,0-9.13Z" transform="translate(-26.38 -89.46)"/><path class="cls-24" d="M81.82,299.9H1089.6l8.49-38.12a4.6,4.6,0,0,1,4.72-3.56,4.54,4.54,0,0,1,4.27,4.09l13.6,134.12,13.48-218.32a4.54,4.54,0,0,1,4.5-4.28h.06a4.56,4.56,0,0,1,4.54,4.18l14.57,171,9.61-81.31a4.63,4.63,0,0,1,4.58-4,4.57,4.57,0,0,1,4.49,4.14L1181,316l5.1-13.22a4.56,4.56,0,0,1,4.26-2.92h288.93a4.53,4.53,0,0,1,2.13.55c20.33-33.75,32.15-69.83,23.33-103.3-15.44-58.56-69.19-81-115.59-77.34-41.53,3.31-85.62,28.67-90.5,77.89a4.56,4.56,0,0,1-9.08,0c-3.83-38.66-34.53-69.38-78.21-78.26-34.78-7.07-84.5,1.32-110.15,48.27-17.71,32.42-15.71,52.19-15.69,52.36a4.57,4.57,0,0,1-9.06,1.13c-.11-.9-2.54-22.56,16.75-57.87,23.06-42.22,70.14-63,120-52.83,39.62,8,69.48,32.8,80.88,65.45,14-40.81,55.24-62.12,94.37-65.24,50.2-4,108.34,20.46,125.13,84.12,33.16,125.77-197.15,283-217.55,292.39a4.59,4.59,0,0,1-3.88,0c-9.41-4.52-70.48-47-112.79-93.65a4.56,4.56,0,0,1,6.76-6.13c39,43,95,82.84,108.09,90.52,15.25-8.23,73.46-48.36,124.64-99.82,19.86-20,40.7-43.72,57.21-69.07H1193.48l-11,28.43a4.56,4.56,0,0,1-8.79-1.23l-2.28-24.49-9.79,82.93a4.56,4.56,0,0,1-9.08-.15l-13.11-153.86-13.1,212.16a4.59,4.59,0,0,1-4.46,4.28h-.09a4.56,4.56,0,0,1-4.54-4.1l-16.4-161.67-3.14,14.13a4.58,4.58,0,0,1-4.46,3.57H81.82a4.57,4.57,0,0,1,0-9.13Z" transform="translate(-26.38 -89.46)"/><path class="cls-24" d="M79.7,299.13H1087.48L1096,261a4.6,4.6,0,0,1,4.72-3.56,4.54,4.54,0,0,1,4.27,4.09l13.6,134.12L1132,177.34a4.54,4.54,0,0,1,4.5-4.28h.06a4.56,4.56,0,0,1,4.54,4.18l14.57,171,9.61-81.31a4.63,4.63,0,0,1,4.58-4,4.57,4.57,0,0,1,4.49,4.14l4.48,48.22,5.1-13.22a4.56,4.56,0,0,1,4.26-2.92h288.93a4.53,4.53,0,0,1,2.13.55c20.33-33.75,32.15-69.83,23.33-103.3-15.44-58.56-69.19-81-115.59-77.35-41.53,3.31-85.62,28.68-90.5,77.89a4.56,4.56,0,0,1-9.08,0c-3.83-38.65-34.53-69.37-78.21-78.25-34.78-7.07-84.5,1.32-110.15,48.26-17.71,32.43-15.71,52.2-15.69,52.37a4.57,4.57,0,0,1-9.06,1.13c-.11-.9-2.54-22.56,16.75-57.87,23.06-42.22,70.14-63,120-52.83,39.62,8,69.48,32.8,80.88,65.45,14-40.81,55.24-62.12,94.37-65.24,50.2-4,108.34,20.46,125.13,84.12,33.16,125.77-197.15,283-217.54,292.39a4.72,4.72,0,0,1-1.91.41,4.62,4.62,0,0,1-2-.45c-9.41-4.52-70.48-47-112.79-93.65a4.56,4.56,0,0,1,6.76-6.13c39,43,95,82.84,108.09,90.52,15.25-8.23,73.46-48.36,124.64-99.82,19.86-20,40.7-43.73,57.21-69.07H1191.36l-11,28.43a4.56,4.56,0,0,1-8.79-1.23L1169.3,311l-9.79,82.93a4.56,4.56,0,0,1-9.08-.15l-13.11-153.86-13.1,212.16a4.59,4.59,0,0,1-4.46,4.28h-.09a4.56,4.56,0,0,1-4.54-4.1l-16.4-161.67-3.14,14.13a4.58,4.58,0,0,1-4.46,3.57H79.7a4.57,4.57,0,0,1,0-9.13Z" transform="translate(-26.38 -89.46)"/><path class="cls-25" d="M77.58,298.36H1085.36l8.49-38.12a4.6,4.6,0,0,1,4.72-3.56,4.54,4.54,0,0,1,4.27,4.09l13.6,134.12,13.48-218.32a4.53,4.53,0,0,1,4.5-4.28h.06a4.56,4.56,0,0,1,4.54,4.17l14.57,171,9.61-81.31a4.63,4.63,0,0,1,4.58-4,4.57,4.57,0,0,1,4.49,4.14l4.48,48.22,5.1-13.22a4.56,4.56,0,0,1,4.26-2.92H1475a4.53,4.53,0,0,1,2.13.55c20.33-33.75,32.15-69.83,23.33-103.3-15.44-58.56-69.19-81-115.59-77.35-41.53,3.31-85.62,28.68-90.5,77.89a4.56,4.56,0,0,1-9.08,0c-3.83-38.66-34.53-69.37-78.21-78.25-34.78-7.07-84.5,1.32-110.15,48.26-17.71,32.43-15.71,52.2-15.69,52.37a4.57,4.57,0,0,1-9.06,1.13c-.11-.9-2.54-22.56,16.75-57.87,23.06-42.22,70.14-63,120-52.84,39.62,8.06,69.48,32.81,80.88,65.46,14-40.81,55.24-62.12,94.37-65.24,50.2-4,108.34,20.46,125.13,84.12,33.16,125.77-197.15,283-217.54,292.39a4.72,4.72,0,0,1-1.91.41,4.62,4.62,0,0,1-2-.45c-9.41-4.52-70.48-47-112.79-93.65a4.56,4.56,0,0,1,6.76-6.13c39,43,95,82.84,108.09,90.52,15.25-8.23,73.46-48.36,124.64-99.82,19.86-20,40.7-43.73,57.21-69.08H1189.24l-11,28.43a4.56,4.56,0,0,1-8.79-1.22l-2.28-24.49-9.79,82.93a4.56,4.56,0,0,1-9.08-.15L1135.2,239.12l-13.1,212.16a4.59,4.59,0,0,1-4.46,4.28h-.09a4.56,4.56,0,0,1-4.54-4.1l-16.4-161.67-3.14,14.12a4.57,4.57,0,0,1-4.46,3.57H77.58a4.56,4.56,0,0,1,0-9.12Z" transform="translate(-26.38 -89.46)"/><path class="cls-26" d="M75.46,297.59H1083.24l8.49-38.12a4.6,4.6,0,0,1,4.72-3.56,4.54,4.54,0,0,1,4.27,4.09l13.6,134.11L1127.8,175.8a4.53,4.53,0,0,1,4.5-4.28h.06a4.56,4.56,0,0,1,4.54,4.17l14.57,171,9.61-81.31a4.63,4.63,0,0,1,4.58-4,4.57,4.57,0,0,1,4.49,4.14l4.48,48.22,5.1-13.22a4.56,4.56,0,0,1,4.26-2.92h288.93a4.53,4.53,0,0,1,2.13.55c20.33-33.75,32.15-69.83,23.33-103.3-15.44-58.56-69.19-81-115.59-77.35-41.53,3.31-85.62,28.68-90.5,77.89a4.56,4.56,0,0,1-9.08,0c-3.83-38.66-34.53-69.37-78.21-78.26-34.78-7.06-84.5,1.33-110.15,48.27-17.71,32.43-15.71,52.2-15.69,52.37a4.57,4.57,0,0,1-9.06,1.13c-.11-.91-2.54-22.56,16.75-57.87,23.06-42.22,70.14-63,120-52.84,39.62,8.06,69.48,32.81,80.88,65.46,14-40.81,55.24-62.12,94.37-65.24,50.2-4,108.34,20.46,125.13,84.12,33.17,125.77-197.15,283-217.54,292.38a4.57,4.57,0,0,1-3.89,0c-9.41-4.53-70.48-47-112.79-93.65a4.56,4.56,0,0,1,6.76-6.13c39,43,95,82.84,108.09,90.52,15.25-8.23,73.46-48.36,124.64-99.82,19.86-20,40.7-43.73,57.21-69.08H1187.12l-11,28.43a4.56,4.56,0,0,1-8.79-1.22l-2.28-24.49-9.79,82.93a4.56,4.56,0,0,1-9.08-.15l-13.11-153.86L1120,450.51a4.59,4.59,0,0,1-4.46,4.28h-.09a4.56,4.56,0,0,1-4.54-4.1L1094.49,289l-3.14,14.12a4.57,4.57,0,0,1-4.46,3.57H75.46a4.56,4.56,0,1,1,0-9.12Z" transform="translate(-26.38 -89.46)"/><path class="cls-27" d="M73.34,296.82H1081.12l8.49-38.12a4.6,4.6,0,0,1,4.72-3.56,4.54,4.54,0,0,1,4.27,4.09l13.6,134.11L1125.68,175a4.52,4.52,0,0,1,4.5-4.28h.06a4.56,4.56,0,0,1,4.54,4.17l14.57,171,9.61-81.31a4.63,4.63,0,0,1,4.58-4,4.56,4.56,0,0,1,4.49,4.14l4.48,48.22,5.1-13.22a4.56,4.56,0,0,1,4.26-2.92H1470.8a4.53,4.53,0,0,1,2.13.55c20.33-33.75,32.15-69.83,23.33-103.3-15.44-58.56-69.19-81-115.59-77.35-41.53,3.31-85.62,28.68-90.5,77.89a4.56,4.56,0,0,1-9.08,0c-3.83-38.66-34.53-69.38-78.21-78.26-34.78-7.06-84.5,1.33-110.15,48.27C1075,197.05,1077,216.82,1077,217a4.57,4.57,0,0,1-9.06,1.13c-.11-.91-2.54-22.56,16.75-57.87,23.06-42.23,70.14-63,120-52.84,39.62,8.06,69.48,32.81,80.88,65.46,14-40.81,55.24-62.12,94.37-65.24,50.2-4,108.34,20.46,125.13,84.12,33.17,125.77-197.15,283-217.54,292.38a4.54,4.54,0,0,1-3.88,0c-9.42-4.53-70.49-47-112.8-93.65a4.56,4.56,0,0,1,6.76-6.13c39,43,95,82.84,108.09,90.52,15.25-8.23,73.46-48.36,124.64-99.83,19.86-20,40.7-43.72,57.21-69.07H1185l-11,28.43a4.56,4.56,0,0,1-8.79-1.22l-2.28-24.49-9.79,82.93a4.56,4.56,0,0,1-9.08-.15L1131,237.58l-13.1,212.16a4.59,4.59,0,0,1-4.46,4.28h-.09a4.56,4.56,0,0,1-4.54-4.1l-16.4-161.67-3.14,14.12a4.57,4.57,0,0,1-4.46,3.57H73.34a4.56,4.56,0,1,1,0-9.12Z" transform="translate(-26.38 -89.46)"/><path class="cls-27" d="M71.22,296.05H1079l8.49-38.12a4.61,4.61,0,0,1,4.72-3.57,4.55,4.55,0,0,1,4.27,4.1l13.6,134.11,13.48-218.31a4.52,4.52,0,0,1,4.5-4.28h.06a4.56,4.56,0,0,1,4.54,4.17l14.57,171,9.61-81.32a4.63,4.63,0,0,1,4.58-4,4.56,4.56,0,0,1,4.49,4.14l4.48,48.22,5.1-13.22a4.56,4.56,0,0,1,4.26-2.92h288.93a4.53,4.53,0,0,1,2.13.55c20.33-33.75,32.15-69.83,23.33-103.3-15.44-58.56-69.19-81-115.59-77.35-41.53,3.31-85.62,28.68-90.5,77.89a4.56,4.56,0,0,1-9.08,0c-3.83-38.66-34.53-69.38-78.21-78.26-34.78-7.07-84.5,1.33-110.15,48.27-17.71,32.43-15.71,52.2-15.69,52.37a4.57,4.57,0,0,1-9.06,1.13c-.11-.91-2.54-22.56,16.75-57.87,23.06-42.23,70.14-63,120-52.84,39.62,8.06,69.48,32.81,80.88,65.46,14-40.81,55.24-62.13,94.37-65.24,50.2-4,108.34,20.46,125.13,84.12,33.17,125.77-197.15,283-217.54,292.38a4.54,4.54,0,0,1-3.88,0c-9.42-4.53-70.49-47-112.8-93.65a4.56,4.56,0,0,1,6.76-6.13c39,43,95,82.84,108.09,90.52,15.25-8.23,73.46-48.36,124.64-99.83,19.86-20,40.7-43.72,57.21-69.07H1182.88l-11,28.43a4.56,4.56,0,0,1-8.79-1.22l-2.28-24.49L1151,390.82a4.56,4.56,0,0,1-9.08-.15l-13.11-153.86L1115.74,449a4.59,4.59,0,0,1-4.46,4.28h-.09a4.56,4.56,0,0,1-4.54-4.1l-16.4-161.67-3.14,14.12a4.57,4.57,0,0,1-4.46,3.57H71.22a4.56,4.56,0,1,1,0-9.12Z" transform="translate(-26.38 -89.46)"/><path class="cls-28" d="M69.1,295.28H1076.88l8.49-38.12a4.61,4.61,0,0,1,4.72-3.57,4.55,4.55,0,0,1,4.27,4.1L1108,391.8l13.48-218.31a4.52,4.52,0,0,1,4.5-4.28h.06a4.56,4.56,0,0,1,4.54,4.17l14.57,171,9.61-81.32a4.62,4.62,0,0,1,4.58-4,4.56,4.56,0,0,1,4.49,4.14l4.48,48.22,5.1-13.22a4.56,4.56,0,0,1,4.26-2.92h288.93a4.53,4.53,0,0,1,2.13.55C1489,262.08,1500.84,226,1492,192.53c-15.44-58.56-69.19-81-115.59-77.35-41.53,3.31-85.62,28.68-90.5,77.89a4.56,4.56,0,0,1-9.08,0c-3.83-38.66-34.53-69.38-78.21-78.26-34.78-7.07-84.5,1.33-110.15,48.27-17.71,32.43-15.71,52.19-15.69,52.37a4.57,4.57,0,0,1-9.06,1.13c-.11-.91-2.54-22.56,16.75-57.87,23.06-42.23,70.14-63,120-52.84,39.62,8.06,69.48,32.81,80.88,65.46,14-40.81,55.24-62.13,94.37-65.24,50.2-4,108.34,20.46,125.13,84.11C1534,316,1303.69,473.23,1283.3,482.59a4.54,4.54,0,0,1-3.88,0c-9.42-4.53-70.49-47-112.8-93.65a4.56,4.56,0,0,1,6.76-6.13c39,43,95,82.83,108.09,90.52,15.25-8.23,73.46-48.37,124.64-99.83,19.86-20,40.7-43.72,57.21-69.07H1180.76l-11,28.43a4.56,4.56,0,0,1-8.79-1.22l-2.28-24.5-9.79,82.94a4.56,4.56,0,0,1-9.08-.15L1126.72,236l-13.1,212.16a4.6,4.6,0,0,1-4.46,4.28h-.09a4.56,4.56,0,0,1-4.54-4.1l-16.4-161.67L1085,300.83a4.57,4.57,0,0,1-4.46,3.57H69.1a4.56,4.56,0,1,1,0-9.12Z" transform="translate(-26.38 -89.46)"/><path class="cls-29" d="M67,294.51H1074.76l8.49-38.12a4.61,4.61,0,0,1,4.72-3.57,4.55,4.55,0,0,1,4.27,4.1L1105.84,391l13.48-218.31a4.52,4.52,0,0,1,4.5-4.28h.06a4.56,4.56,0,0,1,4.54,4.17l14.57,171,9.61-81.32a4.62,4.62,0,0,1,4.58-4,4.56,4.56,0,0,1,4.49,4.14l4.48,48.22,5.1-13.23a4.57,4.57,0,0,1,4.26-2.91h288.93a4.53,4.53,0,0,1,2.13.55c20.33-33.75,32.15-69.84,23.33-103.3-15.44-58.56-69.19-81-115.59-77.35-41.53,3.31-85.62,28.68-90.5,77.89a4.56,4.56,0,0,1-9.08,0c-3.83-38.66-34.53-69.38-78.21-78.26-34.78-7.07-84.5,1.33-110.15,48.27-17.71,32.43-15.71,52.19-15.69,52.36a4.57,4.57,0,1,1-9.06,1.14c-.11-.91-2.54-22.56,16.75-57.87,23.06-42.23,70.14-63,120-52.84,39.62,8.06,69.48,32.81,80.88,65.46,14-40.82,55.24-62.13,94.37-65.24,50.2-4,108.34,20.45,125.13,84.11,33.17,125.78-197.15,283-217.54,292.39a4.54,4.54,0,0,1-3.88,0c-9.42-4.53-70.49-47-112.8-93.65a4.56,4.56,0,0,1,6.76-6.13c39,43,95,82.83,108.09,90.51,15.25-8.23,73.46-48.36,124.64-99.82,19.86-20,40.7-43.72,57.21-69.07H1178.64l-11,28.43a4.56,4.56,0,0,1-8.79-1.22l-2.28-24.5-9.79,82.94a4.56,4.56,0,0,1-9.08-.15L1124.6,235.27l-13.1,212.15a4.58,4.58,0,0,1-4.46,4.28H1107a4.57,4.57,0,0,1-4.54-4.11L1086,285.94l-3.14,14.12a4.57,4.57,0,0,1-4.46,3.57H67a4.56,4.56,0,0,1,0-9.12Z" transform="translate(-26.38 -89.46)"/><path class="cls-30" d="M64.86,293.74H1072.64l8.49-38.13a4.61,4.61,0,0,1,4.72-3.56,4.55,4.55,0,0,1,4.27,4.1l13.6,134.11L1117.2,172a4.52,4.52,0,0,1,4.5-4.28h.06a4.56,4.56,0,0,1,4.54,4.17l14.57,171,9.61-81.32a4.62,4.62,0,0,1,4.58-4,4.55,4.55,0,0,1,4.49,4.14l4.48,48.22,5.1-13.23a4.57,4.57,0,0,1,4.26-2.91h288.93a4.53,4.53,0,0,1,2.13.55c20.33-33.75,32.15-69.84,23.33-103.3-15.44-58.57-69.19-81.05-115.59-77.35-41.53,3.31-85.62,28.68-90.5,77.89a4.56,4.56,0,0,1-9.08,0c-3.83-38.66-34.53-69.38-78.21-78.26-34.78-7.07-84.5,1.32-110.15,48.27-17.71,32.43-15.71,52.19-15.69,52.36a4.57,4.57,0,0,1-9.06,1.14c-.11-.91-2.54-22.56,16.75-57.88,23.06-42.22,70.14-63,120-52.83,39.62,8.06,69.48,32.81,80.88,65.46,14-40.82,55.24-62.13,94.37-65.24,50.2-4,108.34,20.45,125.13,84.11,33.17,125.78-197.15,283-217.54,292.39a4.54,4.54,0,0,1-3.88,0c-9.42-4.53-70.49-47-112.8-93.65a4.56,4.56,0,1,1,6.76-6.13c39,43,95,82.83,108.09,90.51,15.25-8.23,73.46-48.36,124.64-99.82,19.86-20,40.7-43.72,57.21-69.07H1176.52l-11,28.43a4.56,4.56,0,0,1-8.79-1.22l-2.28-24.5-9.79,82.93a4.56,4.56,0,0,1-9.08-.14l-13.11-153.87-13.1,212.16a4.58,4.58,0,0,1-4.46,4.28h-.09a4.57,4.57,0,0,1-4.54-4.11l-16.4-161.67-3.14,14.13a4.57,4.57,0,0,1-4.46,3.57H64.86a4.56,4.56,0,0,1,0-9.12Z" transform="translate(-26.38 -89.46)"/><path class="cls-31" d="M62.74,293H1070.52l8.49-38.13a4.61,4.61,0,0,1,4.72-3.56,4.55,4.55,0,0,1,4.27,4.1l13.6,134.11,13.48-218.31a4.54,4.54,0,0,1,4.5-4.29h.06a4.57,4.57,0,0,1,4.54,4.18l14.57,171,9.61-81.32a4.63,4.63,0,0,1,4.58-4,4.57,4.57,0,0,1,4.49,4.14l4.48,48.23,5.1-13.23a4.55,4.55,0,0,1,4.26-2.91H1460.2a4.53,4.53,0,0,1,2.13.55c20.33-33.75,32.15-69.84,23.33-103.3-15.44-58.57-69.19-81-115.59-77.35-41.53,3.31-85.62,28.68-90.5,77.89a4.56,4.56,0,0,1-9.08,0c-3.83-38.66-34.53-69.38-78.21-78.26-34.78-7.07-84.5,1.32-110.15,48.27-17.71,32.43-15.71,52.19-15.69,52.36a4.57,4.57,0,1,1-9.06,1.13c-.11-.9-2.54-22.55,16.75-57.87,23.06-42.22,70.14-63,120-52.83,39.62,8.06,69.48,32.81,80.88,65.46,14-40.82,55.24-62.13,94.37-65.25,50.2-4,108.34,20.46,125.13,84.12,33.17,125.78-197.15,283-217.54,292.39a4.54,4.54,0,0,1-3.88,0c-9.42-4.53-70.49-47-112.8-93.65a4.56,4.56,0,1,1,6.76-6.13c39,43,95,82.83,108.09,90.51,15.25-8.23,73.46-48.36,124.64-99.82,19.86-20,40.7-43.72,57.21-69.07H1174.4l-11,28.43a4.56,4.56,0,0,1-8.79-1.22l-2.28-24.5-9.79,82.93a4.56,4.56,0,0,1-9.08-.14l-13.11-153.87-13.1,212.16a4.59,4.59,0,0,1-4.46,4.28h-.09a4.56,4.56,0,0,1-4.54-4.1l-16.4-161.67-3.14,14.13a4.57,4.57,0,0,1-4.46,3.57H62.74a4.56,4.56,0,0,1,0-9.12Z" transform="translate(-26.38 -89.46)"/><path class="cls-31" d="M60.62,292.19H1068.4l8.49-38.12a4.61,4.61,0,0,1,4.72-3.56,4.55,4.55,0,0,1,4.27,4.09l13.6,134.12L1113,170.41a4.54,4.54,0,0,1,4.5-4.29h.06a4.57,4.57,0,0,1,4.54,4.18l14.57,171,9.61-81.32a4.63,4.63,0,0,1,4.58-4,4.57,4.57,0,0,1,4.49,4.14l4.48,48.22,5.1-13.22a4.56,4.56,0,0,1,4.26-2.92h288.93a4.53,4.53,0,0,1,2.13.55c20.33-33.75,32.15-69.83,23.33-103.29-15.44-58.57-69.19-81-115.59-77.35-41.53,3.31-85.62,28.67-90.5,77.89a4.56,4.56,0,0,1-9.08,0c-3.83-38.66-34.53-69.38-78.21-78.26-34.78-7.07-84.5,1.32-110.15,48.27-17.71,32.42-15.71,52.19-15.69,52.36a4.57,4.57,0,0,1-9.06,1.13c-.11-.9-2.54-22.55,16.75-57.87,23.06-42.22,70.14-63,120-52.83,39.62,8,69.48,32.8,80.88,65.45,14-40.81,55.24-62.12,94.37-65.24,50.2-4,108.34,20.46,125.13,84.12,33.17,125.78-197.15,283-217.54,292.39a4.54,4.54,0,0,1-3.88,0c-9.42-4.53-70.49-47-112.8-93.65a4.56,4.56,0,1,1,6.76-6.13c39,43,95,82.83,108.09,90.51,15.25-8.23,73.46-48.36,124.64-99.82,19.86-20,40.7-43.72,57.21-69.07H1172.28l-11,28.43a4.56,4.56,0,0,1-8.79-1.22l-2.28-24.5L1140.43,387a4.56,4.56,0,0,1-9.08-.14L1118.24,233l-13.1,212.16a4.59,4.59,0,0,1-4.46,4.28h-.09a4.56,4.56,0,0,1-4.54-4.1l-16.4-161.67-3.14,14.13a4.58,4.58,0,0,1-4.46,3.57H60.62a4.57,4.57,0,0,1,0-9.13Z" transform="translate(-26.38 -89.46)"/><path class="cls-32" d="M58.5,291.42H1066.28l8.49-38.12a4.61,4.61,0,0,1,4.72-3.56,4.55,4.55,0,0,1,4.27,4.09L1097.36,388l13.48-218.32a4.54,4.54,0,0,1,4.5-4.28h.06a4.56,4.56,0,0,1,4.54,4.18l14.57,171,9.61-81.32a4.63,4.63,0,0,1,4.58-4,4.57,4.57,0,0,1,4.49,4.14l4.48,48.22,5.1-13.22a4.56,4.56,0,0,1,4.26-2.92H1456a4.53,4.53,0,0,1,2.13.55c20.33-33.75,32.15-69.83,23.33-103.29-15.44-58.57-69.19-81.05-115.59-77.35-41.53,3.31-85.62,28.67-90.5,77.89a4.56,4.56,0,0,1-9.08,0c-3.83-38.66-34.53-69.38-78.21-78.26-34.78-7.07-84.5,1.32-110.15,48.27-17.71,32.42-15.71,52.19-15.69,52.36a4.57,4.57,0,0,1-9.06,1.13c-.11-.9-2.54-22.55,16.75-57.87,23.06-42.22,70.14-63,120-52.83,39.62,8,69.48,32.8,80.88,65.45,14-40.81,55.24-62.12,94.37-65.24,50.2-4,108.34,20.46,125.13,84.12,33.17,125.77-197.15,283-217.54,292.39a4.59,4.59,0,0,1-3.88,0c-9.42-4.52-70.49-47-112.8-93.64a4.56,4.56,0,1,1,6.76-6.13c39,43,95,82.83,108.09,90.51,15.25-8.23,73.46-48.36,124.64-99.82,19.86-20,40.7-43.72,57.21-69.07H1170.16l-11,28.43a4.56,4.56,0,0,1-8.79-1.22l-2.28-24.5-9.79,82.93a4.56,4.56,0,0,1-9.08-.15l-13.11-153.86L1103,444.34a4.59,4.59,0,0,1-4.46,4.28h-.09a4.56,4.56,0,0,1-4.54-4.1l-16.4-161.67L1074.39,297a4.58,4.58,0,0,1-4.46,3.57H58.5a4.57,4.57,0,0,1,0-9.13Z" transform="translate(-26.38 -89.46)"/><path class="cls-33" d="M56.38,290.65H1064.16l8.49-38.12a4.61,4.61,0,0,1,4.72-3.56,4.55,4.55,0,0,1,4.27,4.09l13.6,134.12,13.48-218.32a4.54,4.54,0,0,1,4.5-4.28h.06a4.56,4.56,0,0,1,4.54,4.18l14.57,171,9.61-81.32a4.63,4.63,0,0,1,4.58-4,4.57,4.57,0,0,1,4.49,4.14l4.48,48.22,5.1-13.22a4.56,4.56,0,0,1,4.26-2.92h288.93a4.53,4.53,0,0,1,2.13.55c20.33-33.75,32.15-69.83,23.33-103.29-15.44-58.57-69.18-81-115.59-77.35-41.53,3.31-85.62,28.67-90.5,77.89a4.56,4.56,0,0,1-9.08,0c-3.83-38.66-34.53-69.38-78.21-78.26-34.78-7.07-84.5,1.32-110.15,48.27-17.71,32.42-15.71,52.19-15.69,52.36A4.57,4.57,0,0,1,1051,212c-.11-.9-2.54-22.55,16.75-57.87,23.06-42.22,70.14-63,120-52.83,39.62,8,69.48,32.8,80.88,65.45,14-40.81,55.24-62.12,94.37-65.24,50.2-4,108.34,20.46,125.13,84.12C1521.29,311.35,1291,468.6,1270.58,478a4.59,4.59,0,0,1-3.88,0c-9.42-4.52-70.49-47-112.8-93.64a4.56,4.56,0,1,1,6.76-6.13c39,43,95,82.83,108.09,90.51,15.25-8.23,73.46-48.36,124.64-99.82,19.86-20,40.7-43.72,57.21-69.07H1168l-11,28.43a4.56,4.56,0,0,1-8.79-1.23L1146,302.49l-9.79,82.93a4.56,4.56,0,0,1-9.08-.15L1114,231.41l-13.1,212.16a4.59,4.59,0,0,1-4.46,4.28h-.09a4.56,4.56,0,0,1-4.54-4.1l-16.4-161.67-3.14,14.13a4.58,4.58,0,0,1-4.46,3.57H56.38a4.57,4.57,0,0,1,0-9.13Z" transform="translate(-26.38 -89.46)"/><path class="cls-34" d="M54.26,289.88H1062l8.49-38.12a4.6,4.6,0,0,1,4.72-3.56,4.54,4.54,0,0,1,4.27,4.09l13.6,134.12,13.48-218.32a4.54,4.54,0,0,1,4.5-4.28h.06a4.56,4.56,0,0,1,4.54,4.18l14.57,171,9.61-81.31a4.63,4.63,0,0,1,4.58-4,4.57,4.57,0,0,1,4.49,4.14l4.48,48.22,5.1-13.22a4.56,4.56,0,0,1,4.26-2.92h288.93a4.53,4.53,0,0,1,2.13.55c20.33-33.75,32.15-69.83,23.33-103.3-15.44-58.56-69.18-81-115.59-77.34-41.53,3.31-85.62,28.67-90.5,77.89a4.56,4.56,0,0,1-9.08,0c-3.83-38.66-34.53-69.38-78.21-78.26-34.78-7.07-84.5,1.32-110.15,48.27-17.71,32.42-15.71,52.19-15.69,52.36a4.57,4.57,0,0,1-9.06,1.13c-.11-.9-2.54-22.56,16.75-57.87,23.06-42.22,70.14-63,120-52.83,39.62,8,69.48,32.8,80.88,65.45,14-40.81,55.24-62.12,94.37-65.24,50.2-4,108.34,20.46,125.13,84.12,33.17,125.77-197.15,283-217.54,292.39a4.59,4.59,0,0,1-3.88,0c-9.42-4.52-70.49-47-112.8-93.65a4.56,4.56,0,0,1,6.76-6.13c39,43,95,82.84,108.09,90.52,15.25-8.23,73.46-48.36,124.64-99.82,19.86-20,40.7-43.72,57.21-69.07H1165.92l-11,28.43a4.56,4.56,0,0,1-8.79-1.23l-2.28-24.49-9.79,82.93a4.56,4.56,0,0,1-9.08-.15l-13.11-153.86-13.1,212.16a4.59,4.59,0,0,1-4.46,4.28h-.09a4.56,4.56,0,0,1-4.54-4.1l-16.4-161.67-3.14,14.13a4.58,4.58,0,0,1-4.46,3.57H54.26a4.57,4.57,0,0,1,0-9.13Z" transform="translate(-26.38 -89.46)"/><path class="cls-34" d="M52.14,289.11H1059.92l8.49-38.12a4.6,4.6,0,0,1,4.72-3.56,4.54,4.54,0,0,1,4.27,4.09L1091,385.64l13.48-218.32A4.54,4.54,0,0,1,1109,163h.06a4.56,4.56,0,0,1,4.54,4.18l14.57,171,9.61-81.31a4.63,4.63,0,0,1,4.58-4,4.57,4.57,0,0,1,4.49,4.14l4.48,48.22,5.1-13.22a4.56,4.56,0,0,1,4.26-2.92H1449.6a4.53,4.53,0,0,1,2.13.55c20.33-33.75,32.15-69.83,23.33-103.3-15.44-58.56-69.18-81-115.59-77.35-41.53,3.31-85.62,28.68-90.5,77.89a4.56,4.56,0,0,1-9.08,0c-3.83-38.65-34.53-69.37-78.21-78.25-34.78-7.07-84.5,1.32-110.15,48.27-17.71,32.42-15.71,52.19-15.69,52.36a4.57,4.57,0,0,1-9.06,1.13c-.11-.9-2.54-22.56,16.75-57.87,23.06-42.22,70.14-63,120-52.83,39.62,8.05,69.48,32.8,80.88,65.45,14-40.81,55.24-62.12,94.37-65.24,50.2-4,108.34,20.46,125.13,84.12,33.17,125.77-197.15,283-217.54,292.39a4.72,4.72,0,0,1-1.91.41,4.54,4.54,0,0,1-2-.45c-9.42-4.52-70.49-47-112.8-93.65a4.56,4.56,0,0,1,6.76-6.13c39,43,95,82.84,108.09,90.52,15.25-8.23,73.46-48.36,124.64-99.82,19.86-20,40.7-43.73,57.21-69.07H1163.8l-11,28.43a4.56,4.56,0,0,1-8.79-1.23L1141.74,301,1132,383.88a4.56,4.56,0,0,1-9.08-.15l-13.11-153.86L1096.66,442a4.59,4.59,0,0,1-4.46,4.28h-.09a4.56,4.56,0,0,1-4.54-4.1l-16.4-161.67L1068,294.67a4.58,4.58,0,0,1-4.46,3.57H52.14a4.57,4.57,0,0,1,0-9.13Z" transform="translate(-26.38 -89.46)"/><path class="cls-35" d="M50,288.34H1057.8l8.49-38.12a4.6,4.6,0,0,1,4.72-3.56,4.54,4.54,0,0,1,4.27,4.09l13.6,134.12,13.48-218.32a4.53,4.53,0,0,1,4.5-4.28h.06a4.56,4.56,0,0,1,4.54,4.17l14.57,171,9.61-81.31a4.63,4.63,0,0,1,4.58-4,4.57,4.57,0,0,1,4.49,4.14l4.48,48.22,5.1-13.22a4.56,4.56,0,0,1,4.26-2.92h288.93a4.53,4.53,0,0,1,2.13.55c20.33-33.75,32.15-69.83,23.33-103.3-15.44-58.56-69.18-81-115.59-77.35-41.53,3.31-85.62,28.68-90.5,77.89a4.56,4.56,0,0,1-9.08,0c-3.83-38.66-34.53-69.37-78.21-78.25-34.78-7.07-84.5,1.32-110.15,48.26-17.71,32.43-15.71,52.2-15.69,52.37a4.57,4.57,0,0,1-9.06,1.13c-.11-.9-2.54-22.56,16.75-57.87,23.06-42.22,70.14-63,120-52.84,39.62,8.06,69.48,32.81,80.88,65.46,14-40.81,55.24-62.12,94.37-65.24,50.2-4,108.34,20.46,125.13,84.12,33.17,125.77-197.15,283-217.54,292.39a4.72,4.72,0,0,1-1.91.41,4.54,4.54,0,0,1-2-.45c-9.42-4.52-70.49-47-112.8-93.65a4.56,4.56,0,0,1,6.76-6.13c39,43,95,82.84,108.09,90.52,15.25-8.23,73.46-48.36,124.64-99.82,19.86-20,40.7-43.73,57.21-69.08H1161.68l-11,28.43a4.56,4.56,0,0,1-8.79-1.22l-2.28-24.49-9.79,82.93a4.56,4.56,0,0,1-9.08-.15L1107.64,229.1l-13.1,212.16a4.59,4.59,0,0,1-4.46,4.28H1090a4.56,4.56,0,0,1-4.54-4.1l-16.4-161.67-3.14,14.12a4.57,4.57,0,0,1-4.46,3.57H50a4.56,4.56,0,1,1,0-9.12Z" transform="translate(-26.38 -89.46)"/><path class="cls-36" d="M47.9,287.57H1055.68l8.49-38.12a4.6,4.6,0,0,1,4.72-3.56,4.54,4.54,0,0,1,4.27,4.09l13.6,134.12,13.48-218.32a4.53,4.53,0,0,1,4.5-4.28h.06a4.56,4.56,0,0,1,4.54,4.17l14.57,171,9.61-81.31a4.63,4.63,0,0,1,4.58-4,4.57,4.57,0,0,1,4.49,4.14l4.48,48.22,5.1-13.22a4.56,4.56,0,0,1,4.26-2.92h288.93a4.53,4.53,0,0,1,2.13.55c20.33-33.75,32.15-69.83,23.33-103.3-15.44-58.56-69.18-81-115.59-77.35-41.53,3.31-85.62,28.68-90.5,77.89a4.56,4.56,0,0,1-9.08,0c-3.83-38.66-34.53-69.37-78.21-78.25-34.78-7.07-84.5,1.32-110.15,48.26-17.71,32.43-15.71,52.2-15.69,52.37a4.57,4.57,0,0,1-9.06,1.13c-.11-.91-2.54-22.56,16.75-57.87,23.06-42.22,70.14-63,120-52.84,39.62,8.06,69.48,32.81,80.88,65.46,14-40.81,55.24-62.12,94.37-65.24,50.2-4,108.34,20.46,125.13,84.12,33.17,125.77-197.15,283-217.54,292.39a4.72,4.72,0,0,1-1.91.41,4.54,4.54,0,0,1-2-.45c-9.42-4.53-70.49-47-112.8-93.65a4.56,4.56,0,0,1,6.76-6.13c39,43,95,82.84,108.09,90.52,15.25-8.23,73.46-48.36,124.64-99.82,19.86-20,40.7-43.73,57.21-69.08H1159.56l-11,28.43a4.56,4.56,0,0,1-8.79-1.22l-2.28-24.49-9.79,82.93a4.56,4.56,0,0,1-9.08-.15l-13.11-153.86-13.1,212.16a4.59,4.59,0,0,1-4.46,4.28h-.09a4.56,4.56,0,0,1-4.54-4.1L1066.93,279l-3.14,14.12a4.57,4.57,0,0,1-4.46,3.57H47.9a4.56,4.56,0,1,1,0-9.12Z" transform="translate(-26.38 -89.46)"/><path class="cls-37" d="M45.78,286.8H1053.56l8.49-38.12a4.6,4.6,0,0,1,4.72-3.56,4.54,4.54,0,0,1,4.27,4.09l13.6,134.11L1098.12,165a4.52,4.52,0,0,1,4.5-4.28h.06a4.56,4.56,0,0,1,4.54,4.17l14.57,171,9.61-81.31a4.63,4.63,0,0,1,4.58-4,4.56,4.56,0,0,1,4.49,4.14l4.48,48.22,5.1-13.22a4.56,4.56,0,0,1,4.26-2.92h288.93a4.53,4.53,0,0,1,2.13.55c20.33-33.75,32.15-69.83,23.33-103.3-15.44-58.56-69.18-81-115.59-77.35-41.53,3.31-85.62,28.68-90.5,77.89a4.56,4.56,0,0,1-9.08,0c-3.83-38.66-34.53-69.38-78.21-78.26-34.78-7.06-84.5,1.33-110.15,48.27-17.71,32.43-15.71,52.2-15.69,52.37a4.57,4.57,0,0,1-9.06,1.13c-.11-.91-2.54-22.56,16.75-57.87,23.06-42.23,70.14-63,120-52.84,39.62,8.06,69.48,32.81,80.88,65.46,14-40.81,55.24-62.12,94.37-65.24,50.2-4,108.34,20.46,125.13,84.12,33.17,125.77-197.15,283-217.54,292.38a4.54,4.54,0,0,1-3.88,0c-9.42-4.53-70.49-47-112.8-93.65a4.56,4.56,0,0,1,6.76-6.13c39,43,95,82.84,108.09,90.52,15.25-8.23,73.46-48.36,124.64-99.82,19.86-20,40.7-43.73,57.21-69.08H1157.44l-11,28.43a4.56,4.56,0,0,1-8.79-1.22l-2.28-24.49-9.79,82.93a4.56,4.56,0,0,1-9.08-.15L1103.4,227.56l-13.1,212.16a4.59,4.59,0,0,1-4.46,4.28h-.09a4.56,4.56,0,0,1-4.54-4.1l-16.4-161.67-3.14,14.12a4.57,4.57,0,0,1-4.46,3.57H45.78a4.56,4.56,0,1,1,0-9.12Z" transform="translate(-26.38 -89.46)"/><path class="cls-37" d="M43.66,286H1051.44l8.49-38.12a4.61,4.61,0,0,1,4.72-3.57,4.55,4.55,0,0,1,4.27,4.1l13.6,134.11L1096,164.24a4.52,4.52,0,0,1,4.5-4.28h.06a4.56,4.56,0,0,1,4.54,4.17l14.57,171,9.61-81.31a4.63,4.63,0,0,1,4.58-4,4.56,4.56,0,0,1,4.49,4.14l4.48,48.22,5.1-13.22a4.56,4.56,0,0,1,4.26-2.92h288.93a4.53,4.53,0,0,1,2.13.55c20.33-33.75,32.15-69.83,23.33-103.3-15.44-58.56-69.18-81-115.59-77.35-41.53,3.31-85.62,28.68-90.5,77.89a4.56,4.56,0,0,1-9.08,0c-3.83-38.66-34.53-69.38-78.21-78.26-34.78-7.07-84.5,1.33-110.15,48.27-17.71,32.43-15.71,52.2-15.69,52.37a4.57,4.57,0,0,1-9.06,1.13c-.11-.91-2.54-22.56,16.75-57.87,23.06-42.23,70.14-63,120-52.84,39.62,8.06,69.48,32.81,80.88,65.46,14-40.81,55.24-62.13,94.37-65.24,50.2-4,108.34,20.46,125.13,84.12,33.17,125.77-197.15,283-217.54,292.38a4.54,4.54,0,0,1-3.88,0c-9.42-4.53-70.49-47-112.8-93.65a4.56,4.56,0,0,1,6.76-6.13c39,43,95,82.84,108.09,90.52,15.25-8.23,73.46-48.36,124.64-99.83,19.86-20,40.7-43.72,57.21-69.07H1155.32l-11,28.43a4.56,4.56,0,0,1-8.79-1.22l-2.28-24.49-9.79,82.93a4.56,4.56,0,0,1-9.08-.15l-13.11-153.86L1088.18,439a4.59,4.59,0,0,1-4.46,4.28h-.09a4.56,4.56,0,0,1-4.54-4.1l-16.4-161.67-3.14,14.12a4.57,4.57,0,0,1-4.46,3.57H43.66a4.56,4.56,0,1,1,0-9.12Z" transform="translate(-26.38 -89.46)"/><path class="cls-38" d="M41.54,285.26H1049.32l8.49-38.12a4.61,4.61,0,0,1,4.72-3.57,4.55,4.55,0,0,1,4.27,4.1l13.6,134.11,13.48-218.31a4.52,4.52,0,0,1,4.5-4.28h.06a4.56,4.56,0,0,1,4.54,4.17l14.57,171,9.61-81.32a4.62,4.62,0,0,1,4.58-4,4.56,4.56,0,0,1,4.49,4.14l4.48,48.22,5.1-13.22a4.56,4.56,0,0,1,4.26-2.92H1439a4.53,4.53,0,0,1,2.13.55c20.33-33.75,32.15-69.83,23.33-103.3-15.44-58.56-69.18-81-115.59-77.35-41.53,3.31-85.62,28.68-90.5,77.89a4.56,4.56,0,0,1-9.08,0c-3.83-38.66-34.53-69.38-78.21-78.26-34.78-7.07-84.5,1.33-110.15,48.27-17.71,32.43-15.71,52.19-15.69,52.37a4.57,4.57,0,0,1-9.06,1.13c-.11-.91-2.54-22.56,16.75-57.87,23.06-42.23,70.14-63,120-52.84,39.62,8.06,69.48,32.81,80.88,65.46,14-40.81,55.24-62.13,94.37-65.24,50.2-4,108.34,20.46,125.13,84.11,33.17,125.78-197.15,283-217.54,292.39a4.54,4.54,0,0,1-3.88,0c-9.42-4.53-70.49-47-112.8-93.65a4.56,4.56,0,0,1,6.76-6.13c39,43,95,82.83,108.09,90.52,15.25-8.23,73.46-48.37,124.64-99.83,19.86-20,40.7-43.72,57.21-69.07H1153.2l-11,28.43a4.56,4.56,0,0,1-8.79-1.22l-2.28-24.5L1121.35,380a4.56,4.56,0,0,1-9.08-.15L1099.16,226l-13.1,212.16a4.6,4.6,0,0,1-4.46,4.28h-.09a4.56,4.56,0,0,1-4.54-4.1l-16.4-161.67-3.14,14.12a4.57,4.57,0,0,1-4.46,3.57H41.54a4.56,4.56,0,0,1,0-9.12Z" transform="translate(-26.38 -89.46)"/><path class="cls-39" d="M39.42,284.49H1047.2l8.49-38.12a4.61,4.61,0,0,1,4.72-3.57,4.55,4.55,0,0,1,4.27,4.1L1078.28,381l13.48-218.31a4.52,4.52,0,0,1,4.5-4.28h.06a4.56,4.56,0,0,1,4.54,4.17l14.57,171,9.61-81.32a4.62,4.62,0,0,1,4.58-4,4.56,4.56,0,0,1,4.49,4.14l4.48,48.22,5.1-13.23a4.57,4.57,0,0,1,4.26-2.91h288.93a4.53,4.53,0,0,1,2.13.55c20.33-33.75,32.15-69.83,23.33-103.3-15.44-58.56-69.18-81-115.59-77.35-41.53,3.31-85.62,28.68-90.5,77.89a4.56,4.56,0,0,1-9.08,0c-3.83-38.66-34.53-69.38-78.21-78.26-34.78-7.07-84.5,1.33-110.15,48.27-17.71,32.43-15.71,52.19-15.69,52.36a4.57,4.57,0,1,1-9.06,1.14c-.11-.91-2.54-22.56,16.75-57.87,23.06-42.23,70.14-63,120-52.84,39.62,8.06,69.48,32.81,80.88,65.46,14-40.82,55.24-62.13,94.37-65.24,50.2-4,108.34,20.46,125.13,84.11,33.17,125.78-197.15,283-217.54,292.39a4.54,4.54,0,0,1-3.88,0c-9.42-4.53-70.49-47-112.8-93.65a4.56,4.56,0,0,1,6.76-6.13c39,43,95,82.83,108.09,90.51,15.25-8.23,73.46-48.36,124.64-99.82,19.86-20,40.7-43.72,57.21-69.07H1151.08l-11,28.43a4.56,4.56,0,0,1-8.79-1.22l-2.28-24.5-9.79,82.94a4.56,4.56,0,0,1-9.08-.15L1097,225.25l-13.1,212.16a4.58,4.58,0,0,1-4.46,4.27h-.09a4.57,4.57,0,0,1-4.54-4.11l-16.4-161.66L1055.31,290a4.57,4.57,0,0,1-4.46,3.57H39.42a4.56,4.56,0,0,1,0-9.12Z" transform="translate(-26.38 -89.46)"/><path class="cls-40" d="M37.3,283.72H1045.08l8.49-38.13a4.61,4.61,0,0,1,4.72-3.56,4.55,4.55,0,0,1,4.27,4.1l13.6,134.11,13.48-218.31a4.52,4.52,0,0,1,4.5-4.28h.06a4.56,4.56,0,0,1,4.54,4.17l14.57,171,9.61-81.32a4.62,4.62,0,0,1,4.58-4,4.56,4.56,0,0,1,4.49,4.14l4.48,48.22,5.1-13.23a4.57,4.57,0,0,1,4.26-2.91h288.93a4.53,4.53,0,0,1,2.13.55c20.33-33.75,32.15-69.84,23.33-103.3-15.44-58.57-69.18-81-115.59-77.35-41.53,3.31-85.62,28.68-90.5,77.89a4.56,4.56,0,0,1-9.08,0c-3.83-38.66-34.53-69.38-78.21-78.26-34.78-7.07-84.5,1.32-110.15,48.27C1039,184,1041,203.71,1041,203.88a4.57,4.57,0,0,1-9.06,1.14c-.11-.91-2.54-22.56,16.75-57.88,23.06-42.22,70.14-63,120-52.83,39.62,8.06,69.48,32.81,80.88,65.46,14-40.82,55.24-62.13,94.37-65.24,50.2-4,108.34,20.45,125.13,84.11,33.17,125.78-197.15,283-217.54,292.39a4.54,4.54,0,0,1-3.88,0c-9.42-4.53-70.49-47-112.8-93.65a4.56,4.56,0,1,1,6.76-6.13c39,43,95,82.83,108.09,90.51,15.25-8.23,73.46-48.36,124.64-99.82,19.86-20,40.7-43.72,57.21-69.07H1149l-11,28.43a4.56,4.56,0,0,1-8.79-1.22l-2.28-24.5-9.79,82.93a4.56,4.56,0,0,1-9.08-.14l-13.11-153.86-13.1,212.15a4.58,4.58,0,0,1-4.46,4.28h-.09a4.57,4.57,0,0,1-4.54-4.11l-16.4-161.67-3.14,14.13a4.57,4.57,0,0,1-4.46,3.57H37.3a4.56,4.56,0,0,1,0-9.12Z" transform="translate(-26.38 -89.46)"/><path class="cls-40" d="M35.18,283H1043l8.49-38.13a4.61,4.61,0,0,1,4.72-3.56,4.55,4.55,0,0,1,4.27,4.1L1074,379.47l13.48-218.31a4.54,4.54,0,0,1,4.5-4.29h.06a4.57,4.57,0,0,1,4.54,4.18l14.57,171,9.61-81.32a4.63,4.63,0,0,1,4.58-4,4.57,4.57,0,0,1,4.49,4.14l4.48,48.23,5.1-13.23a4.57,4.57,0,0,1,4.26-2.91h288.93a4.53,4.53,0,0,1,2.13.55c20.33-33.75,32.15-69.84,23.33-103.3-15.44-58.57-69.18-81-115.59-77.35-41.53,3.31-85.62,28.68-90.5,77.89a4.56,4.56,0,0,1-9.08,0c-3.83-38.66-34.53-69.38-78.21-78.26-34.78-7.07-84.5,1.32-110.15,48.27-17.71,32.43-15.71,52.19-15.69,52.36a4.57,4.57,0,1,1-9.06,1.13c-.11-.9-2.54-22.55,16.75-57.87,23.06-42.22,70.14-63,120-52.83,39.62,8.06,69.48,32.81,80.88,65.46,14-40.82,55.24-62.13,94.37-65.25,50.2-4,108.34,20.46,125.13,84.12,33.17,125.78-197.15,283-217.54,292.39a4.54,4.54,0,0,1-3.88,0c-9.42-4.53-70.49-47-112.8-93.65a4.56,4.56,0,1,1,6.76-6.13c39,43,95,82.83,108.09,90.51,15.25-8.23,73.46-48.36,124.64-99.82,19.86-20,40.7-43.72,57.21-69.07H1146.84l-11,28.43a4.56,4.56,0,0,1-8.79-1.22l-2.28-24.5L1115,377.71a4.56,4.56,0,0,1-9.08-.14L1092.8,223.7l-13.1,212.16a4.59,4.59,0,0,1-4.46,4.28h-.09a4.56,4.56,0,0,1-4.54-4.1l-16.4-161.67-3.14,14.13a4.57,4.57,0,0,1-4.46,3.57H35.18a4.56,4.56,0,1,1,0-9.12Z" transform="translate(-26.38 -89.46)"/><path class="cls-41" d="M33.06,282.17H1040.84l8.49-38.12a4.61,4.61,0,0,1,4.72-3.56,4.55,4.55,0,0,1,4.27,4.09l13.6,134.12,13.48-218.31a4.54,4.54,0,0,1,4.5-4.29h.06a4.57,4.57,0,0,1,4.54,4.18l14.57,171,9.61-81.32a4.63,4.63,0,0,1,4.58-4,4.57,4.57,0,0,1,4.49,4.14l4.48,48.23,5.1-13.23a4.56,4.56,0,0,1,4.26-2.92h288.93a4.53,4.53,0,0,1,2.13.55C1453,249,1464.8,212.89,1456,179.43c-15.44-58.57-69.18-81.05-115.59-77.35-41.53,3.31-85.62,28.67-90.5,77.89a4.56,4.56,0,0,1-9.08,0c-3.83-38.66-34.53-69.38-78.21-78.26-34.78-7.07-84.5,1.32-110.15,48.27-17.71,32.42-15.71,52.19-15.69,52.36a4.57,4.57,0,0,1-9.06,1.13c-.11-.9-2.54-22.55,16.75-57.87,23.06-42.22,70.14-63,120-52.83,39.62,8,69.48,32.81,80.88,65.45,14-40.81,55.24-62.12,94.37-65.24,50.2-4,108.34,20.46,125.13,84.12,33.17,125.78-197.15,283-217.54,292.39a4.54,4.54,0,0,1-3.88,0c-9.42-4.53-70.49-47-112.8-93.65a4.56,4.56,0,1,1,6.76-6.13c39,43,95,82.83,108.09,90.51,15.25-8.23,73.46-48.36,124.64-99.82,19.86-20,40.7-43.72,57.21-69.07H1144.72l-11,28.43a4.56,4.56,0,0,1-8.79-1.22l-2.28-24.5-9.79,82.93a4.56,4.56,0,0,1-9.08-.14l-13.11-153.87-13.1,212.16a4.59,4.59,0,0,1-4.46,4.28H1073a4.56,4.56,0,0,1-4.54-4.1l-16.4-161.67L1049,287.73a4.58,4.58,0,0,1-4.46,3.57H33.06a4.57,4.57,0,0,1,0-9.13Z" transform="translate(-26.38 -89.46)"/><path class="cls-42" d="M30.94,281.4H1038.72l8.49-38.12a4.63,4.63,0,0,1,4.72-3.56,4.56,4.56,0,0,1,4.27,4.09l13.6,134.12,13.48-218.32a4.57,4.57,0,0,1,4.5-4.28h.06a4.56,4.56,0,0,1,4.54,4.18l14.57,171,9.61-81.32a4.63,4.63,0,0,1,4.58-4,4.57,4.57,0,0,1,4.49,4.14l4.48,48.22,5.1-13.22a4.56,4.56,0,0,1,4.26-2.92H1428.4a4.53,4.53,0,0,1,2.13.55c20.33-33.75,32.15-69.83,23.33-103.29-15.44-58.57-69.18-81-115.59-77.35-41.53,3.31-85.62,28.67-90.5,77.89a4.56,4.56,0,0,1-9.08,0c-3.83-38.66-34.53-69.38-78.21-78.26-34.78-7.07-84.5,1.32-110.15,48.27-17.71,32.42-15.71,52.19-15.69,52.36a4.57,4.57,0,0,1-9.06,1.13c-.11-.9-2.54-22.55,16.75-57.87,23.06-42.22,70.14-63,120-52.83,39.62,8,69.48,32.8,80.88,65.45,14-40.81,55.24-62.12,94.37-65.24,50.2-4,108.34,20.46,125.13,84.12,33.17,125.77-197.15,283-217.54,292.39a4.59,4.59,0,0,1-3.88,0c-9.42-4.52-70.49-47-112.8-93.64a4.56,4.56,0,1,1,6.76-6.13c39,43,95,82.83,108.09,90.51,15.25-8.23,73.46-48.36,124.64-99.82,19.86-20,40.7-43.72,57.21-69.07H1142.6l-11,28.43a4.56,4.56,0,0,1-8.79-1.22l-2.28-24.5-9.79,82.93a4.56,4.56,0,0,1-9.08-.14l-13.11-153.87-13.1,212.16a4.55,4.55,0,0,1-4.46,4.28h-.09a4.56,4.56,0,0,1-4.54-4.1L1050,272.83,1046.83,287a4.58,4.58,0,0,1-4.46,3.57H30.94a4.57,4.57,0,0,1,0-9.13Z" transform="translate(-26.38 -89.46)"/></g><path class="cls-43" d="M30.94,281.4H1038.72l8.49-38.12a4.63,4.63,0,0,1,4.72-3.56,4.56,4.56,0,0,1,4.27,4.09l13.6,134.12,13.48-218.32a4.57,4.57,0,0,1,4.5-4.28h.06a4.56,4.56,0,0,1,4.54,4.18l14.57,171,9.61-81.32a4.63,4.63,0,0,1,4.58-4,4.57,4.57,0,0,1,4.49,4.14l4.48,48.22,5.1-13.22a4.56,4.56,0,0,1,4.26-2.92H1428.4a4.53,4.53,0,0,1,2.13.55c20.33-33.75,32.15-69.83,23.33-103.29-15.44-58.57-69.18-81-115.59-77.35-41.53,3.31-85.62,28.67-90.5,77.89a4.56,4.56,0,0,1-9.08,0c-3.83-38.66-34.53-69.38-78.21-78.26-34.78-7.07-84.5,1.32-110.15,48.27-17.71,32.42-15.71,52.19-15.69,52.36a4.57,4.57,0,0,1-9.06,1.13c-.11-.9-2.54-22.55,16.75-57.87,23.06-42.22,70.14-63,120-52.83,39.62,8,69.48,32.8,80.88,65.45,14-40.81,55.24-62.12,94.37-65.24,50.2-4,108.34,20.46,125.13,84.12,33.17,125.77-197.15,283-217.54,292.39a4.59,4.59,0,0,1-3.88,0c-9.42-4.52-70.49-47-112.8-93.64a4.56,4.56,0,1,1,6.76-6.13c39,43,95,82.83,108.09,90.51,15.25-8.23,73.46-48.36,124.64-99.82,19.86-20,40.7-43.72,57.21-69.07H1142.6l-11,28.43a4.56,4.56,0,0,1-8.79-1.22l-2.28-24.5-9.79,82.93a4.56,4.56,0,0,1-9.08-.14l-13.11-153.87-13.1,212.16a4.55,4.55,0,0,1-4.46,4.28h-.09a4.56,4.56,0,0,1-4.54-4.1L1050,272.83,1046.83,287a4.58,4.58,0,0,1-4.46,3.57H30.94a4.57,4.57,0,0,1,0-9.13Z" transform="translate(-26.38 -89.46)"/><text class="cls-44" transform="translate(68.91 180.17)"><tspan class="cls-45">F</tspan><tspan x="82.66" y="0">ARM</tspan><tspan class="cls-46" x="400.36" y="0">A</tspan><tspan x="499.72" y="0">CI</tspan><tspan class="cls-47" x="641.36" y="0">A</tspan></text><text class="cls-48" transform="translate(1124.23 180.4)"><tspan class="cls-49">L</tspan><tspan x="22.78" y="0">o ltimo </tspan><tspan x="0" y="47.54">que se pie</tspan><tspan class="cls-50" x="190.29" y="47.54">r</tspan><tspan x="206.69" y="47.54">de</tspan></text><text class="cls-51" transform="translate(119.84 313.71)">ESPE<tspan class="cls-52" x="352.34" y="0">R</tspan><tspan x="444.28" y="0">ANZ</tspan><tspan class="cls-53" x="727.99" y="0">A</tspan></text></g></g></svg>